<?xml version="1.0" encoding="UTF-8"?>
<svg width="246px" height="228px" viewBox="0 0 246 228" version="1.1" xmlns="http://www.w3.org/2000/svg" xmlns:xlink="http://www.w3.org/1999/xlink">
    <title>举例说明</title>
    <defs>
        <polygon id="path-1" points="0 0.00722098747 6.24006031 0.00722098747 6.24006031 0.872071153 0 0.872071153"></polygon>
    </defs>
    <g id="-" stroke="none" stroke-width="1" fill="none" fill-rule="evenodd">
        <g id="切图" transform="translate(-50.000000, -570.000000)">
            <g id="举例说明" transform="translate(50.000000, 570.000000)">
                <rect id="矩形" x="0" y="0" width="246" height="228" rx="10"></rect>
                <g id="编组-7" transform="translate(28.000000, 7.000000)">
                    <path d="M116.326896,0 C127.984402,9.83811623 138.636438,22.3507472 147.645125,36.6748457 C156.775442,51.1945269 164.127266,67.4340933 169.068124,84.4016617 C174.025199,101.420454 176.495628,118.973218 175.917213,135.999772 C175.3415,152.864892 171.830463,167.448215 166.062525,179.298038 C160.402702,190.927443 152.610309,199.835766 143.347552,205.715662 C134.309133,211.452753 123.91387,214.282492 112.748287,213.982909 C101.885427,213.691087 90.3036014,210.436033 78.5136544,204.017508 M22.3911281,144.176988 C15.590691,131.647282 10.0984461,118.127246 6.26306439,104.273477 C2.43849423,90.452305 0.227541307,76.1716693 0.0167169444,62.0447056 C-0.196810294,47.8075326 1.64114568,34.9177066 5.19002244,23.7322435" id="形状" stroke="#D6DAE4" stroke-width="3" stroke-linecap="round"></path>
                    <g id="编组" transform="translate(22.940516, 10.250042)">
                        <g>
                            <path d="M24.0537492,96.7354236 L20.439962,97.218155 C20.0628788,97.2682746 19.6778104,97.2656367 19.285644,97.2058449 C18.8961393,97.1469323 18.4995366,97.0335036 18.0976103,96.8638002 C17.6965713,96.6940969 17.2902088,96.4689981 16.87941,96.1867453 C16.4694985,95.9062511 16.0551506,95.5686029 15.6354793,95.1738007 L19.1720754,94.7068966 C19.5970703,95.0999402 20.0185161,95.4358298 20.4337512,95.7145654 C20.8525353,95.9950596 21.2642213,96.2192791 21.6714711,96.3872239 C22.0804954,96.5551687 22.4833089,96.6685974 22.8799116,96.7257514 C23.2774016,96.7837846 23.669568,96.7873018 24.0537492,96.7354236" id="Fill-1" fill="#000000"></path>
                            <path d="M9.84339376,1.06782317 L13.5050927,0.782053222 C11.8237456,0.913067751 10.3056533,2.06406116 8.99429128,4.05653715 C7.70511061,6.01735863 6.61290043,8.7950425 5.75847442,12.2295576 C4.91558273,15.6165909 4.29982816,19.6534211 3.95202443,24.1958443 C3.60688246,28.6925444 3.52170604,33.7053888 3.73730886,39.1103976 C3.9759803,45.1291523 4.56689174,51.1171318 5.43107754,56.8184621 C6.29703785,62.5303438 7.44514507,67.9942652 8.80086982,72.942042 C10.1672416,77.9302664 11.7545398,82.4225699 13.4882349,86.127907 C15.2476604,89.8860016 17.1667917,92.8527333 19.1719867,94.7071604 L15.6353906,95.1740645 C13.6603623,93.3117238 11.7660741,90.3344406 10.0279427,86.5666738 C8.3146544,82.8516645 6.74421408,78.3470508 5.38848933,73.3473957 C4.04429889,68.3890673 2.90417697,62.9128359 2.03910391,57.1904026 C1.17580536,51.4776416 0.581344905,45.4782313 0.332026414,39.4489251 C0.107551047,34.0342441 0.179418654,29.013486 0.507702788,24.5088723 C0.83953594,19.9585355 1.4339964,15.9164295 2.25470673,12.5249998 C3.08695138,9.08520891 4.15343118,6.30400787 5.41688147,4.3423071 C6.70073861,2.34807252 8.19043878,1.19707911 9.84339376,1.06782317" id="Fill-3" fill="#000000"></path>
                            <path d="M13.505004,0.781877363 C13.7081853,0.766050105 13.913141,0.765170813 14.1216458,0.779239487 C14.3301506,0.793308161 14.5404299,0.823204094 14.753371,0.868047993 C14.9671993,0.912891892 15.1828021,0.974442342 15.4001794,1.05094076 C15.618444,1.12831847 15.8393704,1.22152343 16.0620712,1.33143495 L12.3586713,1.62160136 C12.1395195,1.51168984 11.9221421,1.41848487 11.7074266,1.34022787 C11.492711,1.26285016 11.2815444,1.20217901 11.0712651,1.15645582 C10.8618731,1.11073262 10.6542556,1.08083669 10.4492998,1.06588872 C10.2452313,1.05182005 10.0429373,1.05269934 9.84330503,1.06764731 C10.941726,0.982355972 12.406583,0.868047993 13.505004,0.781877363" id="Fill-5" fill="#FFFFFF"></path>
                            <g transform="translate(9.796103, 0.000000)">
                                <mask id="mask-2" fill="white">
                                    <use xlink:href="#path-1"></use>
                                </mask>
                                <g id="Clip-8"></g>
                                <path d="M0,0.303982085 L3.66258623,0.0199707235 C3.867542,0.00414346497 4.07427228,0.00238488069 4.28455158,0.0164535549 C4.49394362,0.0305222292 4.70688468,0.060418162 4.92160025,0.105262061 C5.13720307,0.150985252 5.3545804,0.212535702 5.57373224,0.289034119 C5.79377134,0.365532535 6.01558494,0.458737502 6.24006031,0.568649019 L2.53577312,0.857936134 C2.31484677,0.748024616 2.09569493,0.653940357 1.87920485,0.576562649 C1.66360203,0.49918494 1.44977372,0.43763449 1.23771991,0.392790591 C1.02655336,0.3470674 0.818048572,0.317171467 0.611318293,0.302223501 C0.405475268,0.287275534 0.201406752,0.288154826 0,0.303982085" id="Fill-7" fill="#E9EBF0" mask="url(#mask-2)"></path>
                            </g>
                            <path d="M29.3967066,27.8711976 C28.1084132,27.9925399 26.821007,28.1147615 25.5336009,28.2361038 C24.6844984,24.739159 23.7386852,21.4637957 22.7174553,18.4803575 C21.7024363,15.5162637 20.6155496,12.8467328 19.4780895,10.5377116 C18.3503891,8.24891415 17.1756643,6.31798861 15.9743218,4.808244 C14.7854009,3.31256807 13.5742986,2.23191803 12.35876,1.62168929 L16.06216,1.33064359 C17.2963309,1.93823446 18.5269527,3.01448804 19.7318442,4.50488822 C20.9491573,6.01111565 22.1398527,7.93588615 23.2808619,10.2185285 C24.4316309,12.5213947 25.5318263,15.1838913 26.5566052,18.1400714 C27.5875948,21.115596 28.5422806,24.3830456 29.3967066,27.8711976" id="Fill-9" fill="#FFFFFF"></path>
                            <path d="M33.6814356,60.5092908 C33.8216218,65.9345233 33.6557052,70.9060411 33.2289359,75.3139326 C32.80749,79.6796181 32.1305149,83.4772808 31.248584,86.6137159 C30.3764129,89.7114621 29.3054968,92.1567735 28.0801985,93.8713932 C26.8726452,95.5613927 25.5169205,96.5391656 24.0556124,96.7352477 L20.4427125,97.2179791 C21.8782901,97.0254141 23.2091717,96.0493999 24.3927691,94.3594004 C25.5941116,92.6447807 26.6410718,90.1977107 27.4910615,87.0964473 C28.3525856,83.9556158 29.0082666,80.1526772 29.4128546,75.7790781 C29.8218789,71.3641523 29.9735994,66.3838416 29.8236534,60.9471783 C29.7446878,58.1070647 29.5867565,55.2563996 29.3560703,52.4233203 C29.1253842,49.5867238 28.8219432,46.7703511 28.4537326,44.0023395 C28.085522,41.2343278 27.6534291,38.5173151 27.1627774,35.8776801 C26.6739002,33.2415622 26.1282388,30.6863393 25.532891,28.2357521 C26.8211845,28.1144098 28.1085906,27.9930675 29.396884,27.8708458 C29.9957808,30.315278 30.544104,32.8652252 31.0356429,35.4943087 C31.5280691,38.1277887 31.9619365,40.8386463 32.3292599,43.600503 C32.6974705,46.3623596 32.9982497,49.171698 33.2262741,52.0030186 C33.4542985,54.8308222 33.6077935,57.674453 33.6814356,60.5092908" id="Fill-11" fill="#FFFFFF"></path>
                            <path d="M15.6356568,95.1738887 C17.648837,97.0714011 19.5617576,97.6376652 21.2990017,97.0054542 C23.0699615,96.3618124 24.6563724,94.4730928 25.9703962,91.4852581 C27.3083759,88.4446659 28.3615469,84.2759419 29.0367475,79.1540652 C29.7208206,73.9636037 30.0136146,67.8235066 29.8237421,60.9474421 C29.6320952,54.0256544 28.9702034,47.0642985 27.9409883,40.444108 C26.9135476,33.8371068 25.5285435,27.6213907 23.8942209,22.15659 C22.2740943,16.7436676 20.4215071,12.103643 18.4420425,8.55921635 C16.4918573,5.06930584 14.4307653,2.66180396 12.3590262,1.62160136 C10.3272136,0.601622475 8.47640088,0.992907477 6.86958313,2.53694448 C5.29204478,4.05196483 3.94696708,6.67841046 2.88847256,10.1832689 C1.84683588,13.6309734 1.07936081,17.9395049 0.637508109,22.9048676 C0.200978937,27.8113178 0.0811995904,33.3842714 0.331405336,39.4487493 C0.580723827,45.4780555 1.17607154,51.4774657 2.03937009,57.1902268 C2.90355589,62.9135393 4.04456507,68.3888915 5.38875551,73.3472199 C6.74448026,78.346875 8.31492057,82.8514886 10.0282089,86.5664979 C11.7663403,90.335144 13.6606284,93.3115479 15.6356568,95.1738887 M12.3315213,0.857496488 C14.436976,1.9073713 16.5317837,4.34740699 18.5139101,7.88831644 C20.5262031,11.4863799 22.4116187,16.2002651 24.0583629,21.7011167 C25.721965,27.2556051 27.130925,33.5741985 28.1752234,40.2928697 C29.2221836,47.0247303 29.8947225,54.1039114 30.0890312,61.1408864 C30.2815654,68.1330175 29.9825607,74.3742331 29.2851787,79.6482273 C28.5966693,84.8518782 27.5248659,89.083032 26.1638177,92.1675888 C24.825838,95.1967503 23.2136967,97.1083314 21.4134575,97.7546111 C19.6478212,98.3885807 17.7047341,97.80561 15.6604999,95.8720466 C13.6553049,93.9754135 11.7326246,90.9480106 9.9687628,87.120452 C8.2306314,83.3465301 6.63712247,78.7733317 5.26276538,73.699816 C3.89905534,68.6676271 2.74207558,63.11138 1.86458097,57.305414 C0.988860858,51.508241 0.385527855,45.4217808 0.131773092,39.3027868 C-0.122868925,33.1503796 -0.00220232472,27.4947726 0.439650375,22.5135826 C0.8868266,17.4726008 1.66494872,13.0954845 2.72078148,9.59150532 C3.79347207,6.02861357 5.15806936,3.35556546 6.75867633,1.80976988 C8.38944994,0.234957652 10.2686548,-0.170396025 12.3315213,0.857496488" id="Fill-13" fill="#E9EBF0"></path>
                            <path d="M12.3586713,1.62160136 C14.4304104,2.66180396 16.4923896,5.07018513 18.4416876,8.55921635 C20.4211522,12.103643 22.2746267,16.7436676 23.893866,22.15659 C25.5281886,27.6213907 26.91408,33.8371068 27.9406334,40.444108 C28.9707357,47.0651778 29.6317403,54.0256544 29.8233872,60.9474421 C30.0132597,67.8235066 29.7204657,73.9636037 29.0363926,79.1540652 C28.361192,84.2759419 27.3089082,88.4446659 25.9709286,91.4852581 C24.6560175,94.4730928 23.0696066,96.3618124 21.2995341,97.0063335 C19.5622899,97.6376652 17.6484821,97.0714011 15.6353019,95.1738887 C13.6602735,93.3115479 11.7668726,90.335144 10.0287412,86.5664979 C8.31456567,82.8514886 6.74412535,78.346875 5.38928786,73.3472199 C4.04421017,68.3888915 2.90408824,62.9135393 2.03901519,57.1902268 C1.17571664,51.4774657 0.581256179,45.4780555 0.331937688,39.4487493 C0.0808446886,33.3842714 0.200624035,27.8113178 0.637153208,22.9048676 C1.07900591,17.9395049 1.84648098,13.6309734 2.88811766,10.1832689 C3.94749943,6.67841046 5.29257713,4.05196483 6.86922823,2.53694448 C8.47693323,0.992907477 10.3268587,0.601622475 12.3586713,1.62160136" id="Fill-15" fill="#FFFFFF"></path>
                            <path d="M24.1724639,97.4794806 C22.9684596,97.6412703 21.7635681,97.8021808 20.5586766,97.9639706 C22.0164356,97.7687677 23.3677241,96.7786848 24.5690666,95.0649444 C25.7881541,93.3257045 26.8528594,90.8425835 27.716158,87.6955969 C28.5909908,84.5081629 29.2582062,80.6471911 29.6698922,76.2067658 C30.0869018,71.7223759 30.2412841,66.6638082 30.0886763,61.1409743 C29.8952548,54.10312 29.222716,47.0248183 28.1757558,40.2929576 C27.1305701,33.5742864 25.7216101,27.2556931 24.0588953,21.7012046 C22.4112638,16.200353 20.5267355,11.4864678 18.5135552,7.88840437 C16.5323161,4.34749492 14.4375084,1.90745923 12.3320537,0.857584417 L16.0363409,0.568297302 C18.1755113,1.61289637 20.3004856,4.04501843 22.3065678,7.57625566 C24.3454785,11.1628883 26.2504137,15.8644634 27.9122412,21.3521256 C29.5900393,26.8925454 31.0087591,33.1961908 32.0548321,39.8990348 C33.1035668,46.6159474 33.7707821,53.6793012 33.9508948,60.7022075 C34.0928555,66.2136107 33.9233899,71.2633854 33.4895225,75.7389824 C33.0600913,80.1732527 32.3724692,84.0280694 31.475455,87.2119863 C30.589975,90.3554557 29.5013139,92.8359388 28.2573832,94.5751787 C27.0311976,96.288919 25.655066,97.2807606 24.1724639,97.4794806" id="Fill-17" fill="#E9EBF0"></path>
                        </g>
                        <g transform="translate(35.999887, 60.000000)">
                            <path d="M0.0904837772,0.893722154 L3.98428936,0.446077263 C3.98690148,0.445206359 3.99038432,0.445206359 3.99299644,0.446077263 C3.99647927,0.446077263 3.9999621,0.446948167 4.00344493,0.447819072 C4.00692776,0.448689976 4.0104106,0.450431785 4.01389343,0.452173594 C4.01737626,0.453915403 4.02085909,0.455657212 4.02434192,0.458269925 L0.130536339,0.905914816 C0.127053508,0.903302103 0.123570676,0.901560294 0.120087845,0.899818485 C0.116605013,0.898076676 0.113122182,0.896334867 0.10963935,0.895463963 C0.107027227,0.894593058 0.103544395,0.893722154 0.100061564,0.893722154 C0.0965787322,0.893722154 0.0939666086,0.893722154 0.0904837772,0.893722154" id="Fill-19" fill="#E9EBF0"></path>
                            <polygon id="Fill-21" fill="#E9EBF0" points="0.286828401 1.80329477 4.18150469 1.35303716 4.37654325 10.0899507 0.499281121 10.5584973"></polygon>
                            <path d="M23.9116579,37.3041473 C22.5341981,37.4948754 21.1576089,37.6847326 19.7810198,37.8754607 C19.786244,37.8745898 19.7914683,37.8737189 19.7958218,37.8711061 C19.8010461,37.8684934 19.8053996,37.8658807 19.8106238,37.8615262 C19.8149774,37.8571717 19.8193309,37.8519462 19.8236845,37.8467208 C19.8271673,37.8406245 19.8315208,37.8327863 19.8350037,37.8258191 L23.9665125,37.2536349 C23.9630297,37.261473 23.9595468,37.2684403 23.9551933,37.2745366 C23.9508398,37.2806329 23.9464862,37.2858583 23.941262,37.289342 C23.9369084,37.2936965 23.9316842,37.2971801 23.9273306,37.2997928 C23.9221064,37.3015346 23.9168821,37.3032764 23.9116579,37.3041473" id="Fill-23" fill="#E9EBF0"></path>
                            <polygon id="Fill-25" fill="#E9EBF0" points="0.499019909 10.558236 4.37628204 10.0896894 23.6850997 24.4108423 19.5283404 24.9534158"></polygon>
                            <polygon id="Fill-27" fill="#E9EBF0" points="19.6983896 25.500518 23.8568904 24.9562027 23.9996865 35.9818531 19.8646948 36.5514246"></polygon>
                            <path d="M19.5283404,24.9536771 L23.6850997,24.4102327 C23.7077381,24.4276508 23.7303765,24.4563906 23.7504028,24.4920977 C23.7704291,24.5286757 23.7887139,24.5730918 23.8043867,24.6227334 C23.8200594,24.6723749 23.8322493,24.726371 23.8418271,24.7829798 C23.8505342,24.8395886 23.8557585,24.8979392 23.8566292,24.9554189 L19.6981284,25.500605 C19.6972577,25.4431254 19.6920334,25.3839039 19.6833264,25.3272951 C19.6737486,25.2706863 19.6615587,25.2158193 19.6458859,25.1661777 C19.6310839,25.1165362 19.612799,25.0721201 19.5927727,25.0355421 C19.5727465,24.9989641 19.5509788,24.9710951 19.5283404,24.9536771" id="Fill-29" fill="#E9EBF0"></path>
                            <polygon id="Fill-31" fill="#E9EBF0" points="0.286828401 1.80329477 4.18150469 1.35303716 23.5617204 15.0009809 19.3858055 15.5226527"></polygon>
                            <polygon id="Fill-33" fill="#D6DAE4" points="0.130449268 0.906001907 4.02425485 0.458357016 23.3835736 14.0244357 19.2085294 14.5443657"></polygon>
                            <path d="M23.6123085,15.0161347 L19.4355229,15.5386773 C19.4320401,15.5395482 19.4276865,15.5395482 19.423333,15.5386773 C19.4198502,15.5386773 19.4154966,15.5378064 19.4111431,15.5360646 C19.4067895,15.5351937 19.4033067,15.5334519 19.3989532,15.5308392 C19.3945996,15.5282265 19.3902461,15.5256138 19.3858925,15.523001 L23.5618075,15.0004584 C23.566161,15.003942 23.5705146,15.0065547 23.5748681,15.0091674 C23.5792216,15.0109092 23.5835752,15.012651 23.5879287,15.0143928 C23.5922823,15.0152637 23.5957651,15.0161347 23.6001186,15.0161347 C23.6044722,15.0161347 23.6088257,15.0161347 23.6123085,15.0161347" id="Fill-35" fill="#E9EBF0"></path>
                            <path d="M23.6123085,15.0161347 L19.4355229,15.5386773 C19.4520663,15.5360646 19.4668684,15.5264847 19.479929,15.5099375 C19.4938603,15.4942612 19.5060502,15.4707468 19.5147573,15.4420069 C19.5252058,15.4132671 19.5321715,15.3793018 19.5373957,15.3392402 C19.5417493,15.3000495 19.5443614,15.2547625 19.5434907,15.2068627 L23.7228884,14.685191 C23.7237591,14.7330907 23.721147,14.7775068 23.7159228,14.8166975 C23.7106985,14.8567591 23.7028622,14.8907244 23.6932844,14.9203352 C23.6837066,14.949075 23.6715167,14.9717185 23.658456,14.9882657 C23.6445247,15.0048129 23.628852,15.0143928 23.6123085,15.0161347" id="Fill-37" fill="#E9EBF0"></path>
                            <polygon id="Fill-39" fill="#E9EBF0" points="19.3476685 2.18684109 23.5540582 1.69478007 23.7229755 14.685191 19.5435777 15.2068627"></polygon>
                            <path d="M19.0980365,0.573926037 L23.3044262,0.0853486368 C23.3296768,0.0949285858 23.3523152,0.107121248 23.3714707,0.120184815 C23.3906263,0.134119286 23.4071698,0.149795567 23.4211011,0.167213656 C23.4350324,0.184631745 23.4472223,0.204662547 23.4568001,0.225564254 C23.4681193,0.247336866 23.4768264,0.270851286 23.4855335,0.296107515 L19.2765316,0.78555582 C19.2686953,0.759428687 19.2599882,0.736785171 19.2495397,0.715012559 C19.2390912,0.693239948 19.2269013,0.673209145 19.21297,0.655791056 C19.1999093,0.638372967 19.1833659,0.622696687 19.165081,0.608762216 C19.1459255,0.594827744 19.1232871,0.583505986 19.0980365,0.573926037" id="Fill-41" fill="#D6DAE4"></path>
                            <polygon id="Fill-43" fill="#E9EBF0" points="26.3095003 24.4314827 30.5768396 23.8723621 24.000383 35.9822886 19.8645207 36.5518601"></polygon>
                            <path d="M19.3476685,2.18684109 L26.3098486,24.4314827 L19.8648689,36.5509892 L19.6985637,25.5009534 C19.697693,25.4426028 19.6924688,25.3842522 19.682891,25.3276434 C19.6741839,25.2710346 19.6611233,25.2161677 19.6463213,25.1665261 C19.6306485,25.1168845 19.6123637,25.0724684 19.5923374,25.0358904 C19.5723111,24.9993124 19.5505434,24.9714435 19.5287757,24.9540254 L0.499455262,10.5579747 L0.287002543,1.80364313 L19.3851089,15.523001 C19.408618,15.5395482 19.429515,15.5421609 19.4495413,15.5351937 C19.4686969,15.5273556 19.486111,15.5081957 19.5000423,15.4794558 C19.5139737,15.450716 19.5261636,15.4132671 19.5331292,15.3662382 C19.5409656,15.3209512 19.5444484,15.2669551 19.5435777,15.2068627 L19.3476685,2.18684109 Z" id="Fill-45" fill="#E9EBF0"></path>
                            <polygon id="Fill-47" fill="#E9EBF0" points="19.3476685 2.18684109 23.5540582 1.69478007 30.5763171 23.8723621 26.3098486 24.4314827"></polygon>
                            <polygon id="Fill-49" fill="#D6DAE4" points="26.6789416 25.0094149 30.9515051 24.4485525 23.9666866 37.2534607 19.8351778 37.8256449"></polygon>
                            <polygon id="Fill-51" fill="#D6DAE4" points="19.2766187 0.785294549 23.4847498 0.295846244 30.9449748 23.8233302 26.6715406 24.3824508"></polygon>
                            <path d="M19.8646077,36.5514246 L26.3095874,24.4310473 L19.3474073,2.18727654 L19.5433165,15.2064273 C19.5441872,15.2665197 19.5407044,15.3205158 19.5337387,15.3666737 C19.5259024,15.4128316 19.5145832,15.4502805 19.5006518,15.4798913 C19.4858498,15.5077602 19.4684356,15.5269201 19.4492801,15.5347583 C19.4292538,15.5425964 19.4083568,15.5391128 19.3857184,15.5225656 L0.28674133,1.80320768 L0.49919405,10.5584102 L19.5285145,24.95359 C19.5511529,24.971008 19.5729206,24.998877 19.5929469,25.035455 C19.6121024,25.072033 19.6303873,25.1164491 19.6460601,25.1660906 C19.6617328,25.2157322 19.6739227,25.2705992 19.6835005,25.327208 C19.6922076,25.3838168 19.6974318,25.4430383 19.6983025,25.500518 L19.8646077,36.5514246 L19.8646077,36.5514246 Z M26.6718018,24.3822766 C26.689216,24.4388854 26.7031473,24.4981069 26.7118544,24.5581993 C26.7214322,24.6174208 26.7257857,24.6775132 26.726787,24.734122 C26.7275271,24.7907308 26.7240443,24.843856 26.7162079,24.8908848 C26.7075009,24.9379137 26.6953109,24.9779753 26.6787675,25.0093278 L19.8350037,37.8255578 C19.828038,37.8403632 19.8202016,37.851685 19.8114945,37.8595231 C19.8027875,37.8682322 19.7932097,37.8734576 19.7845026,37.8751994 C19.7740541,37.8769412 19.7644763,37.8760703 19.7540278,37.8725867 C19.7435793,37.8691031 19.7340015,37.8630067 19.7235531,37.8551686 C19.6922076,37.805527 19.6660863,37.7567564 19.6451893,37.7097275 C19.6234216,37.6618278 19.6068782,37.614799 19.5929469,37.568641 C19.5798863,37.523354 19.5711792,37.478067 19.5642135,37.4345217 C19.5581186,37.3909765 19.5555064,37.3483022 19.5546357,37.3064988 L19.3770113,25.6816661 L0.381648488,11.2455538 C0.362492915,11.2316193 0.34420805,11.2063631 0.326793892,11.1732687 C0.309379735,11.1410453 0.293706993,11.1001128 0.280646375,11.0548257 C0.26671505,11.0086678 0.255395847,10.9581553 0.247559476,10.9050302 C0.238852398,10.851905 0.234498858,10.7961671 0.232757443,10.7413001 L0.000113442632,1.2022836 C-0.000592265758,1.14654572 0.00201985784,1.09690416 0.00724410505,1.05422985 C0.0133390601,1.01155553 0.0220461388,0.975848444 0.0342360489,0.949721311 C0.0464259591,0.922723272 0.060357285,0.905305183 0.0760300266,0.897467043 C0.0925734761,0.889628903 0.110858341,0.892241616 0.130013914,0.906176088 L19.208094,14.5445399 L19.0008655,0.914885132 C18.9999948,0.869598101 19.0017362,0.827794687 19.0060898,0.78947489 C19.0104433,0.751155094 19.017409,0.717189821 19.0261161,0.687579069 C19.0339524,0.658839222 19.0444009,0.633582993 19.0565908,0.614423095 C19.0687807,0.595263196 19.0827121,0.581328725 19.0983848,0.573490585 C19.1236353,0.583941439 19.145403,0.595263196 19.1645586,0.609197668 C19.1837142,0.622261235 19.1993869,0.637937515 19.2133182,0.656226508 C19.2272496,0.673644598 19.2385688,0.6936754 19.2490173,0.714577107 C19.2594658,0.736349719 19.2681728,0.759864139 19.2768799,0.785120368 L26.6718018,24.3822766 Z" id="Fill-53" fill="#D6DAE4"></path>
                            <path d="M26.6717148,24.382625 L30.945149,23.8235043 C30.9625631,23.8792422 30.9764945,23.9384637 30.9860722,23.9985561 C30.9947793,24.0577776 31.0000036,24.1169991 31.0000036,24.1736079 C31.0008743,24.2302167 30.9965207,24.2833419 30.9886844,24.3303707 C30.980848,24.3773996 30.9677874,24.4174612 30.9512439,24.4488137 L26.6786804,25.0096762 C26.6952239,24.9783236 26.7082845,24.9373911 26.7161209,24.8903623 C26.7239572,24.8433335 26.7274401,24.7902083 26.7265694,24.7335995 C26.7256987,24.6769907 26.7213451,24.6177692 26.7117673,24.5576768 C26.7030602,24.4984553 26.6899996,24.4383629 26.6717148,24.382625" id="Fill-55" fill="#D6DAE4"></path>
                        </g>
                        <g transform="translate(69.000000, 39.000000)">
                            <path d="M19.1122818,1.63126373 L23.8963668,1.11819777 C20.9147271,1.43765394 18.1865836,2.96981145 15.7879852,5.5166603 C13.4392118,8.00982644 11.4007528,11.4816021 9.73904156,15.7586185 C8.10617643,19.9617111 6.83170248,24.9586039 5.98030492,30.6032095 C5.14027099,36.1782916 4.70757921,42.4142871 4.75041133,49.19239 C4.80111057,57.1831943 5.51002578,65.2602429 6.74866062,73.0741582 C7.99079196,80.9065545 9.77837717,88.5497412 11.9951577,95.6305794 C14.2381619,102.792382 16.9400817,109.438478 19.989029,115.157007 C23.0982909,120.987302 26.5912936,125.897951 30.3544008,129.420769 L25.7556303,130.276172 C22.0423481,126.732233 18.5913034,121.798703 15.5178806,115.945527 C12.5030242,110.203237 9.82820229,103.533379 7.6044288,96.3486958 C5.40600493,89.2458564 3.62978334,81.5797886 2.38940025,73.7253912 C1.15251366,65.8903548 0.43747957,57.7930651 0.369297835,49.7837799 C0.311605599,42.9898362 0.722444254,36.73976 1.53800269,31.1541174 C2.3631765,25.4971912 3.60705609,20.4906179 5.20495622,16.2804849 C6.83082835,11.9973082 8.83082589,8.52113231 11.1376412,6.02532604 C13.4934076,3.47759714 16.1760966,1.94631967 19.1122818,1.63126373" id="Fill-57" fill="#000000"></path>
                            <path d="M44.1456426,134.834275 L39.3510681,135.748641 C38.2837617,135.952811 37.1893575,135.992413 36.0731001,135.864807 C34.9664581,135.738081 33.837963,135.446786 32.6928595,134.988283 C31.5573714,134.53242 30.406149,133.911988 29.243563,133.123468 C28.0905924,132.341109 26.9262582,131.392421 25.7558051,130.275644 L30.3545756,129.421121 C31.540763,130.530857 32.7208315,131.473385 33.8895363,132.249584 C35.0678566,133.032824 36.2356873,133.647095 37.3877838,134.097678 C38.5486215,134.551781 39.693725,134.838675 40.8169754,134.961001 C41.9507152,135.084207 43.0617279,135.040205 44.1456426,134.834275" id="Fill-59" fill="#000000"></path>
                            <path d="M23.8952304,1.11775775 C24.4616633,1.05703468 25.0368374,1.03943379 25.6207528,1.06759521 C26.2072905,1.09575664 26.8025695,1.16880033 27.4065898,1.28936643 C28.0123582,1.40993253 28.626868,1.57802104 29.2492448,1.79539203 C29.8742441,2.01276303 30.5062363,2.27941652 31.1469698,2.5971126 C26.9057163,3.05033553 26.8908561,3.05297566 26.8287933,3.06617633 L26.2562415,3.12865949 C25.6251234,2.80920333 25.0009983,2.54078975 24.3856145,2.32077861 C23.7719788,2.10252757 23.1662104,1.93267898 22.5691831,1.81035279 C21.9739041,1.6880266 21.3873664,1.61322282 20.810444,1.58418135 C20.2352699,1.55601992 19.668837,1.57186072 19.1111454,1.63082371 C20.5464583,1.47769596 22.4599175,1.27176554 23.8952304,1.11775775" id="Fill-61" fill="#FFFFFF"></path>
                            <path d="M19.0555511,0.574154248 C20.6508288,0.40342561 22.2461066,0.233577017 23.8413844,0.0628483797 C24.4121879,0.00212530753 24.9926067,-0.0145955384 25.5808927,0.0126858418 C26.1726752,0.0408472666 26.7731989,0.114771007 27.3815898,0.234457062 C27.992603,0.355023162 28.6123575,0.52399171 29.2399791,0.740482663 C29.8702231,0.958733705 30.5083342,1.2253872 31.1534383,1.54396331 L26.2600877,2.07287007 C25.6237248,1.75253387 24.9952291,1.48324024 24.3737264,1.26410915 C23.754846,1.04497807 23.1447069,0.875129475 22.5424349,0.752803286 C21.9427853,0.630477098 21.3510028,0.555673313 20.7688357,0.526631844 C20.1884168,0.497590375 19.6176133,0.51431122 19.0555511,0.574154248" id="Fill-63" fill="#E9EBF0"></path>
                            <path d="M62.4147635,90.858274 C62.2705329,97.4480474 61.6665127,103.43059 60.674381,108.716137 C59.6944871,113.943602 58.3395937,118.467911 56.6831272,122.220421 C55.0520103,125.917488 53.1333064,128.855076 50.9969454,130.979504 C48.8972976,133.067849 46.5922305,134.367675 44.1464293,134.834099 L39.3509807,135.749345 C41.7600686,135.289962 44.0284225,133.994536 46.0922311,131.907951 C48.1918789,129.785283 50.076492,126.845935 51.6761403,123.144467 C53.2993901,119.386677 54.6245633,114.854448 55.5799817,109.616423 C56.5450155,104.318555 57.1271826,98.3210515 57.2565531,91.7127972 C57.4436158,82.0595888 56.6437916,72.1080454 55.0406467,62.4601172 C53.4427466,52.8403505 51.0660012,43.6333247 48.1132077,35.4013883 C45.1997497,27.2803374 41.7548239,20.1854184 37.9847236,14.6085763 C34.2967911,9.15230024 30.3238939,5.18857971 26.2565912,3.12927552 L31.1464453,2.59772863 C35.2723144,4.6429521 39.2959108,8.5881917 43.0275496,14.0207065 C46.8422302,19.5746675 50.322121,26.640545 53.2600545,34.7316744 C56.2390718,42.9328093 58.6315514,52.1072735 60.2320739,61.6953585 C61.836967,71.3116051 62.6263017,81.232347 62.4147635,90.858274" id="Fill-65" fill="#FFFFFF"></path>
                            <path d="M25.7557177,130.275908 C29.56865,133.914892 33.3134007,135.760346 36.8273824,135.925794 C40.4375178,136.095643 43.8002759,134.491322 46.7224751,131.238677 C49.7189749,127.905068 52.2382026,122.853613 54.069494,116.261199 C55.9348764,109.542059 57.0703645,101.274921 57.2565531,91.7132372 C57.4427416,82.0600289 56.6437916,72.1084854 55.0406467,62.4596772 C53.4427466,52.8399105 51.0651271,43.6328847 48.1123335,35.4009482 C45.1997497,27.2798974 41.7548239,20.1858585 37.9847236,14.6081363 C34.2967911,9.15274026 30.3238939,5.18813968 26.2565912,3.1288355 C22.3011765,1.1267342 18.6316006,1.11617367 15.3807304,2.74161591 C12.2163987,4.32305592 9.44105241,7.46129469 7.17269856,11.8412763 C4.95416982,16.125333 3.2085426,21.6185709 2.04246011,28.063137 C0.894734252,34.4047378 0.300329389,41.7126276 0.369385248,49.7843959 C0.437566982,57.7936811 1.15260107,65.8900908 2.38948766,73.7260072 C3.62987075,81.5795245 5.40609234,89.2455924 7.60451621,96.3493118 C9.8282897,103.533115 12.5031116,110.202973 15.517968,115.945263 C18.5913908,121.799319 22.0424355,126.731969 25.7557177,130.275908 M26.2600877,2.07278207 C30.394698,4.15056719 34.4340287,8.16621035 38.1848982,13.7025705 C42.0214319,19.3647769 45.5275465,26.5732216 48.4925778,34.8289193 C51.4995671,43.1999028 53.9208928,52.5653366 55.5476391,62.3523118 C57.1796301,72.1692084 57.991692,82.2941207 57.7985104,92.1127775 C57.6070771,101.837269 56.4479876,110.241695 54.5458921,117.0682 C52.6787615,123.764459 50.1123311,128.888078 47.0625096,132.264809 C44.0887371,135.557055 40.6682867,137.172817 36.9978367,136.985368 C33.4270369,136.803198 29.6228458,134.914623 25.7522212,131.207875 C21.9838692,127.598813 18.4829993,122.583439 15.3649962,116.636098 C12.3081818,110.804043 9.59664663,104.033861 7.34227877,96.7435717 C5.11413466,89.5368871 3.31343757,81.7616938 2.05644611,73.7964108 C0.802077023,65.8504888 0.0756793153,57.6387933 0.00574933138,49.5159824 C-0.0659289022,41.3289281 0.534594835,33.913673 1.69630669,27.4770273 C2.87637517,20.9338963 4.64472964,15.3526539 6.8921045,10.9964335 C9.19192685,6.53988807 12.0066087,3.34268632 15.2172691,1.72252435 C18.5162161,0.0574801081 22.2426101,0.0530798855 26.2600877,2.07278207" id="Fill-67" fill="#E9EBF0"></path>
                            <path d="M26.2564164,3.1288355 C30.323719,5.18813968 34.2966163,9.15274026 37.9845488,14.6081363 C41.754649,20.1858585 45.1995749,27.2798974 48.1130328,35.4009482 C51.0658264,43.6328847 53.4434459,52.8399105 55.041346,62.4596772 C56.6444909,72.1084854 57.4434409,82.0600289 57.2563782,91.7132372 C57.0701896,101.274921 55.9347015,109.542939 54.0693192,116.261199 C52.2389019,122.854493 49.7188001,127.905068 46.7231744,131.238677 C43.8001011,134.491322 40.4382171,136.095643 36.8272075,135.925794 C33.3141,135.760346 29.5684752,133.914892 25.7555428,130.275908 C22.0422607,126.731969 18.591216,121.799319 15.5177932,115.945263 C12.5029368,110.202973 9.828989,103.533115 7.60521551,96.3493118 C5.40591752,89.2455924 3.62969592,81.5804046 2.38931283,73.7260072 C1.15242624,65.8900908 0.437392157,57.7936811 0.369210423,49.7843959 C0.300154564,41.7126276 0.894559427,34.4047378 2.04228529,28.063137 C3.20836777,21.6185709 4.95399499,16.125333 7.17252374,11.8412763 C9.44175171,7.46129469 12.2162238,4.32305592 15.3814297,2.74161591 C18.6314257,1.11617367 22.3018758,1.1267342 26.2564164,3.1288355" id="Fill-69" fill="#145DD7"></path>
                            <path d="M26.2564164,3.1288355 C30.323719,5.18813968 34.2966163,9.15274026 37.9845488,14.6081363 C41.754649,20.1858585 45.1995749,27.2798974 48.1130328,35.4009482 C51.0658264,43.6328847 53.4434459,52.8399105 55.041346,62.4596772 C56.6444909,72.1084854 57.4434409,82.0600289 57.2563782,91.7132372 C57.0701896,101.274921 55.9347015,109.542939 54.0693192,116.261199 C52.2389019,122.854493 49.7188001,127.905068 46.7231744,131.238677 C43.8001011,134.491322 40.4382171,136.095643 36.8272075,135.925794 C33.3141,135.760346 29.5684752,133.914892 25.7555428,130.275908 C22.0422607,126.731969 18.591216,121.799319 15.5177932,115.945263 C12.5029368,110.202973 9.828989,103.533115 7.60521551,96.3493118 C5.40591752,89.2455924 3.62969592,81.5804046 2.38931283,73.7260072 C1.15242624,65.8900908 0.437392157,57.7936811 0.369210423,49.7843959 C0.300154564,41.7126276 0.894559427,34.4047378 2.04228529,28.063137 C3.20836777,21.6185709 4.95399499,16.125333 7.17252374,11.8412763 C9.44175171,7.46129469 12.2162238,4.32305592 15.3814297,2.74161591 C18.6314257,1.11617367 22.3018758,1.1267342 26.2564164,3.1288355" id="Fill-69" fill="#145DD7"></path>
                            <path d="M44.4098905,135.888744 L39.6135678,136.806631 C42.0576207,136.339327 44.3591913,135.025421 46.4535943,132.908913 C48.5847106,130.754564 50.4990439,127.772974 52.1231678,124.016944 C53.7726413,120.204591 55.1196676,115.605478 56.0899461,110.289129 C57.0724624,104.910297 57.6659931,98.8221489 57.797986,92.1126894 C57.9920417,82.2940327 57.1791056,72.1691204 55.5471146,62.3522238 C53.9212425,52.5652486 51.4990427,43.1998148 48.4929275,34.8288313 C45.527022,26.5731336 42.0217816,19.3646889 38.1852478,13.7024824 C34.4335042,8.16612235 30.3941735,4.15047918 26.2604373,2.07269406 L31.1529138,1.5437873 C35.3460905,3.60749171 39.4378687,7.6037739 43.2333186,13.1172528 C47.1144327,18.7548181 50.6563863,25.9342213 53.6476414,34.1599975 C56.6799803,42.4992994 59.1170403,51.8312915 60.7455348,61.586585 C62.3801482,71.37004 63.1825947,81.4641507 62.9649376,91.2555261 C62.8163364,97.9465046 62.2009526,104.019692 61.1913384,109.385323 C60.1948362,114.690232 58.8172155,119.281424 57.1362735,123.089377 C55.4780587,126.841006 53.5305087,129.820837 51.3618051,131.976946 C49.2306888,134.095213 46.8915308,135.41264 44.4098905,135.888744" id="Fill-71" fill="#E9EBF0"></path>
                        </g>
                    </g>
                    <path id="椭圆形" d="M33.9405163,151.750042 C40.8440757,151.750042 46.4405163,157.346482 46.4405163,164.250042 C46.4405163,171.153601 40.8440757,176.750042 33.9405163,176.750042 C27.0369569,176.750042 21.4405163,171.153601 21.4405163,164.250042 C21.4405163,157.346482 27.0369569,151.750042 33.9405163,151.750042 Z M33.9405163,154.750042 C28.6938112,154.750042 24.4405163,159.003336 24.4405163,164.250042 C24.4405163,169.496747 28.6938112,173.750042 33.9405163,173.750042 C39.1872214,173.750042 43.4405163,169.496747 43.4405163,164.250042 C43.4405163,159.003336 39.1872214,154.750042 33.9405163,154.750042 Z" fill="#D6DAE4" fill-rule="nonzero"></path>
                    <path id="椭圆形备份-4" d="M178.940516,25.7500416 C185.844076,25.7500416 191.440516,31.3464822 191.440516,38.2500416 C191.440516,45.153601 185.844076,50.7500416 178.940516,50.7500416 C172.036957,50.7500416 166.440516,45.153601 166.440516,38.2500416 C166.440516,31.3464822 172.036957,25.7500416 178.940516,25.7500416 Z M178.940516,28.7500416 C173.693811,28.7500416 169.440516,33.0033365 169.440516,38.2500416 C169.440516,43.4967467 173.693811,47.7500416 178.940516,47.7500416 C184.187221,47.7500416 188.440516,43.4967467 188.440516,38.2500416 C188.440516,33.0033365 184.187221,28.7500416 178.940516,28.7500416 Z" fill="#D6DAE4" fill-rule="nonzero"></path>
                </g>
            </g>
        </g>
    </g>
</svg>