<?xml version="1.0" encoding="UTF-8"?>
<svg width="16px" height="16px" viewBox="0 0 16 16" version="1.1" xmlns="http://www.w3.org/2000/svg" xmlns:xlink="http://www.w3.org/1999/xlink">
    <title>形状结合</title>
    <g id="-" stroke="none" stroke-width="1" fill="none" fill-rule="evenodd" fill-opacity="0.55">
        <g id="切图" transform="translate(-75.000000, -90.000000)" fill="#222222" fill-rule="nonzero">
            <path d="M83,90 C87.418278,90 91,93.581722 91,98 C91,102.418278 87.418278,106 83,106 C78.581722,106 75,102.418278 75,98 C75,93.581722 78.581722,90 83,90 Z M83,94 C82.5581722,94 82.2,94.3581722 82.2,94.8 L82.2,94.8 L82.2,97.199 L79.8,97.2 C79.392159,97.2 79.0555984,97.5051881 79.0062331,97.8996497 L79,98 C79,98.4418278 79.3581722,98.8 79.8,98.8 L79.8,98.8 L82.2,98.799 L82.2,101.2 C82.2,101.607841 82.5051881,101.944402 82.8996497,101.993767 L83,102 C83.4418278,102 83.8,101.641828 83.8,101.2 L83.8,101.2 L83.8,98.799 L86.2,98.8 C86.607841,98.8 86.9444016,98.4948119 86.9937669,98.1003503 L87,98 C87,97.5581722 86.6418278,97.2 86.2,97.2 L86.2,97.2 L83.8,97.199 L83.8,94.8 C83.8,94.392159 83.4948119,94.0555984 83.1003503,94.0062331 Z" id="形状结合"></path>
        </g>
    </g>
</svg>