<?xml version="1.0" encoding="UTF-8"?>
<svg width="24px" height="24px" viewBox="0 0 24 24" version="1.1" xmlns="http://www.w3.org/2000/svg" xmlns:xlink="http://www.w3.org/1999/xlink">
    <title>报警</title>
    <defs>
        <filter color-interpolation-filters="auto" id="filter-1">
            <feColorMatrix in="SourceGraphic" type="matrix" values="0 0 0 0 1.000000 0 0 0 0 0.200000 0 0 0 0 0.200000 0 0 0 1.000000 0"></feColorMatrix>
        </filter>
    </defs>
    <g id="-" stroke="none" stroke-width="1" fill="none" fill-rule="evenodd">
        <g id="切图" transform="translate(-745.000000, -332.000000)">
            <g id="编组-7" transform="translate(741.000000, 328.000000)">
                <g id="报警" transform="translate(4.000000, 4.000000)">
                    <rect id="矩形备份-5" fill="#FF3333" fill-rule="nonzero" opacity="0.1" x="0" y="0" width="24" height="24" rx="4"></rect>
                    <g filter="url(#filter-1)" id="声光报警">
                        <g transform="translate(7.000000, 5.000000)">
                            <path d="M4.99999999,3.15107103 C7.25969129,3.15107103 9.09843384,5.1036463 9.15716026,7.53640749 L9.15860734,7.65643215 L9.15860734,11.8474658 C9.15860734,12.4604178 8.71694212,12.9616119 8.15958308,12.9978966 L8.09477755,13 L1.90522244,13 C1.3394461,13 0.876826198,12.5215078 0.843334155,11.9176749 L0.84139265,11.8474658 L0.84139265,7.65643215 C0.84139265,5.16818989 2.70326456,3.15107103 4.99999999,3.15107103 Z M4.99999999,4.07553551 C3.19210837,4.07553551 1.72051729,5.63546902 1.66943896,7.58071983 L1.6680677,7.68529161 L1.6680677,11.5877306 C1.6680677,11.8402999 1.84524533,12.0480365 2.07229224,12.073017 L2.11832882,12.0755355 L7.88167116,12.0755355 C8.1148015,12.0755355 8.30654977,11.8835844 8.32960764,11.6376058 L8.33193228,11.5877306 L8.33193228,7.68529161 C8.33193228,5.69167838 6.84017537,4.07553551 4.99999999,4.07553551 Z M0.87544383,1.50958864 C0.87679326,1.51103597 0.878135102,1.5124916 0.87946929,1.51395546 L1.62683406,2.33194531 C1.82079691,2.54394371 1.82079691,2.88598077 1.62683406,3.09798082 L1.60567182,3.12214603 C1.41074042,3.33534866 1.09339262,3.33676105 0.896856254,3.12529864 L0.893950054,3.12214599 L0.145472158,2.30294697 C-0.0484907083,2.09094858 -0.0484907083,1.74891151 0.145472091,1.53691147 L0.166632855,1.51395547 C0.361253564,1.30041915 0.67859986,1.29846328 0.87544383,1.50958864 Z M9.77887441,1.46124267 L9.83045477,1.50958622 C9.83068295,1.509831 9.83091095,1.51007602 9.83113877,1.51032128 L9.85452786,1.53690286 C10.0484907,1.74890125 10.0484907,2.09093832 9.85452786,2.30293836 L9.10604987,3.12092824 C8.91111853,3.33413088 8.59377071,3.33554326 8.39723435,3.12408085 C8.39626162,3.12303429 8.3952929,3.1219834 8.39432817,3.12092821 L8.37316593,3.09797143 C8.17920308,2.88597304 8.17920308,2.54393596 8.37316587,2.33193592 L9.1216438,1.51394608 C9.3000475,1.31820597 9.5815735,1.30025359 9.77887441,1.46124267 Z M5.04733927,0 C5.32415217,0 5.54855242,0.243429359 5.54855242,0.543715955 L5.54855242,1.70605886 C5.54855242,2.00634546 5.32415217,2.24977482 5.04733927,2.24977482 L5.02060787,2.24977482 C4.74379502,2.24977482 4.51939478,2.00634546 4.51939478,1.70605886 L4.51939478,0.54371604 C4.51939478,0.243429444 4.74379502,0 5.02060787,0 L5.04733927,0 Z" id="形状结合" fill="#FFFFFF" fill-rule="nonzero"></path>
                        </g>
                    </g>
                </g>
            </g>
        </g>
    </g>
</svg>