<?xml version="1.0" encoding="UTF-8"?>
<svg width="24px" height="24px" viewBox="0 0 24 24" version="1.1" xmlns="http://www.w3.org/2000/svg" xmlns:xlink="http://www.w3.org/1999/xlink">
    <title>连铸</title>
    <defs>
        <filter color-interpolation-filters="auto" id="filter-1">
            <feColorMatrix in="SourceGraphic" type="matrix" values="0 0 0 0 0.003922 0 0 0 0 0.431373 0 0 0 0 0.972549 0 0 0 1.000000 0"></feColorMatrix>
        </filter>
    </defs>
    <g id="-" stroke="none" stroke-width="1" fill="none" fill-rule="evenodd">
        <g id="切图" transform="translate(-745.000000, -215.000000)">
            <g id="编组-3" transform="translate(741.000000, 211.000000)">
                <g id="连铸" transform="translate(4.000000, 4.000000)">
                    <rect id="矩形备份-4" fill="#E4EFFD" x="0" y="0" width="24" height="24" rx="4"></rect>
                    <g filter="url(#filter-1)" id="连铸阶段原因">
                        <g transform="translate(4.000000, 4.000000)">
                            <rect id="矩形备份-18" x="0" y="0" width="16" height="16"></rect>
                            <path d="M12.0722892,14.3783784 C12.5114553,14.3783784 12.8674699,14.7413907 12.8674699,15.1891892 C12.8674699,15.6369876 12.5114553,16 12.0722892,16 C11.633123,16 11.2771084,15.6369876 11.2771084,15.1891892 C11.2771084,14.7413907 11.633123,14.3783784 12.0722892,14.3783784 Z M8.89156627,13.8378378 C9.33073245,13.8378378 9.68674699,14.2008502 9.68674699,14.6486486 C9.68674699,15.0964471 9.33073245,15.4594595 8.89156627,15.4594595 C8.45240008,15.4594595 8.09638554,15.0964471 8.09638554,14.6486486 C8.09638554,14.2008502 8.45240008,13.8378378 8.89156627,13.8378378 Z M12.0722892,14.9189189 C11.9259004,14.9189189 11.8072289,15.039923 11.8072289,15.1891892 C11.8072289,15.3384553 11.9259004,15.4594595 12.0722892,15.4594595 C12.2186779,15.4594595 12.3373494,15.3384553 12.3373494,15.1891892 C12.3373494,15.039923 12.2186779,14.9189189 12.0722892,14.9189189 Z M8.89156627,14.3783784 C8.74517754,14.3783784 8.62650602,14.4993825 8.62650602,14.6486486 C8.62650602,14.7979148 8.74517754,14.9189189 8.89156627,14.9189189 C9.03795499,14.9189189 9.15662651,14.7979148 9.15662651,14.6486486 C9.15662651,14.4993825 9.03795499,14.3783784 8.89156627,14.3783784 Z M6.77108434,12.4864865 C7.21025052,12.4864865 7.56626506,12.8494989 7.56626506,13.2972973 C7.56626506,13.7450957 7.21025052,14.1081081 6.77108434,14.1081081 C6.33191815,14.1081081 5.97590361,13.7450957 5.97590361,13.2972973 C5.97590361,12.8494989 6.33191815,12.4864865 6.77108434,12.4864865 Z M10.4819277,1 C10.9942883,1 11.4096386,1.42351443 11.4096386,1.94594595 L11.4096386,1.94594595 L11.4096386,2.89189189 C11.4096386,3.93675493 10.578938,4.78378378 9.55421687,4.78378378 L9.55421687,4.78378378 L8.69277108,4.78378378 L8.69277108,5.59459459 L10.5167786,5.59459459 C10.8681116,5.59459459 11.155584,5.87338809 11.1780197,6.22584441 L11.1780197,6.22584441 L11.1794292,6.27027027 C11.1794292,6.40366553 11.1407052,6.53407613 11.0681372,6.6450677 L11.0681372,6.6450677 L10.3613099,7.72614878 C10.2384109,7.91412085 10.0315106,8.02702703 9.80995129,8.02702703 L9.80995129,8.02702703 L8.75903614,8.02702703 L8.75903614,8.7027027 C8.75903614,9.06094146 8.48561698,9.35406451 8.139955,9.37694117 L8.139955,9.37694117 L8.09638554,9.37837838 L7.96385542,9.37837838 L7.96385542,9.37837838 C7.96385542,10.9476905 8.30647909,11.8129206 9.13829799,12.3363377 C9.90586538,12.8193249 11.0609651,13.0686176 12.6024096,13.0686176 C12.8219927,13.0686176 13,13.2501238 13,13.474023 C13,13.6979222 12.8219927,13.8794284 12.6024096,13.8794284 C10.926294,13.8794284 9.63278572,13.6002644 8.72069732,13.0263383 C7.61597491,12.3311983 7.1686747,11.2016277 7.1686747,9.37837838 L7.03614458,9.37837838 C6.67017276,9.37837838 6.37349398,9.07586807 6.37349398,8.7027027 L6.37349398,8.7027027 L6.37349398,8.02702703 L5.32257883,8.02702703 C5.11684515,8.02702703 4.92375118,7.92967426 4.79881616,7.76526575 L4.79881616,7.76526575 L4.7712202,7.72614878 L4.06439289,6.6450677 C3.86138825,6.33457534 3.94367214,5.91506903 4.2481791,5.70807413 C4.35703107,5.63407975 4.48492773,5.59459459 4.61575152,5.59459459 L4.61575152,5.59459459 L6.30722892,5.59459459 L6.30722892,4.78378378 L5.57831325,4.78378378 C4.69036346,4.78378378 3.94809808,4.14777419 3.76577375,3.29815424 L2.54054054,3.2972973 C2.24200824,3.2972973 2,3.05528905 2,2.75675676 C2,2.45822446 2.24200824,2.21621622 2.54054054,2.21621622 L3.722,2.216 L3.72289157,1.94594595 C3.72289157,1.46083096 4.08102524,1.06100674 4.54241173,1.00636407 L4.65060241,1 Z M6.77108434,13.027027 C6.62469561,13.027027 6.5060241,13.1480311 6.5060241,13.2972973 C6.5060241,13.4465634 6.62469561,13.5675676 6.77108434,13.5675676 C6.91747307,13.5675676 7.03614458,13.4465634 7.03614458,13.2972973 C7.03614458,13.1480311 6.91747307,13.027027 6.77108434,13.027027 Z M12.0722892,11.1351351 C12.5114553,11.1351351 12.8674699,11.4981475 12.8674699,11.9459459 C12.8674699,12.3937444 12.5114553,12.7567568 12.0722892,12.7567568 C11.633123,12.7567568 11.2771084,12.3937444 11.2771084,11.9459459 C11.2771084,11.4981475 11.633123,11.1351351 12.0722892,11.1351351 Z M12.0722892,11.6756757 C11.9259004,11.6756757 11.8072289,11.7966798 11.8072289,11.9459459 C11.8072289,12.0952121 11.9259004,12.2162162 12.0722892,12.2162162 C12.2186779,12.2162162 12.3373494,12.0952121 12.3373494,11.9459459 C12.3373494,11.7966798 12.2186779,11.6756757 12.0722892,11.6756757 Z M9.42168675,10.0540541 C9.86085293,10.0540541 10.2168675,10.4170664 10.2168675,10.8648649 C10.2168675,11.3126633 9.86085293,11.6756757 9.42168675,11.6756757 C8.98252056,11.6756757 8.62650602,11.3126633 8.62650602,10.8648649 C8.62650602,10.4170664 8.98252056,10.0540541 9.42168675,10.0540541 Z M5.97590361,9.78378378 C6.4150698,9.78378378 6.77108434,10.1467961 6.77108434,10.5945946 C6.77108434,11.042393 6.4150698,11.4054054 5.97590361,11.4054054 C5.53673743,11.4054054 5.18072289,11.042393 5.18072289,10.5945946 C5.18072289,10.1467961 5.53673743,9.78378378 5.97590361,9.78378378 Z M9.42168675,10.5945946 C9.27529802,10.5945946 9.15662651,10.7155987 9.15662651,10.8648649 C9.15662651,11.014131 9.27529802,11.1351351 9.42168675,11.1351351 C9.56807548,11.1351351 9.68674699,11.014131 9.68674699,10.8648649 C9.68674699,10.7155987 9.56807548,10.5945946 9.42168675,10.5945946 Z M5.97590361,10.3243243 C5.82951489,10.3243243 5.71084337,10.4453284 5.71084337,10.5945946 C5.71084337,10.7438607 5.82951489,10.8648649 5.97590361,10.8648649 C6.12229234,10.8648649 6.24096386,10.7438607 6.24096386,10.5945946 C6.24096386,10.4453284 6.12229234,10.3243243 5.97590361,10.3243243 Z M10.4819277,1.81081081 L4.65060241,1.81081081 C4.57740805,1.81081081 4.51807229,1.87131287 4.51807229,1.94594595 L4.51807229,1.94594595 L4.51807229,2.89189189 C4.51807229,3.48895649 4.99275834,3.97297297 5.57831325,3.97297297 L5.57831325,3.97297297 L6.70481928,3.97297297 C6.92440237,3.97297297 7.10240964,4.15447916 7.10240964,4.37837838 L7.10240964,4.37837838 L7.10240964,6 C7.10240964,6.22389922 6.92440237,6.40540541 6.70481928,6.40540541 L6.70481928,6.40540541 L4.86371084,6.40540541 L5.39383133,7.21621622 L6.77108434,7.21621622 C6.97775078,7.21621622 7.14758881,7.37699678 7.16685464,7.58257838 L7.16685464,7.58257838 L7.1686747,7.62162162 L7.1686747,8.56756757 L7.96385542,8.56756757 L7.96385542,7.62162162 C7.96385542,7.41089294 8.1215366,7.23771657 8.32315518,7.21807205 L8.32315518,7.21807205 L8.36144578,7.21621622 L9.73896386,7.21621622 L10.2690843,6.40540541 L8.29518072,6.40540541 C8.08851428,6.40540541 7.91867625,6.24462484 7.89941042,6.03904325 L7.89941042,6.03904325 L7.89759036,6 L7.89759036,4.37837838 C7.89759036,4.15447916 8.07559763,3.97297297 8.29518072,3.97297297 L8.29518072,3.97297297 L9.55421687,3.97297297 C10.1397718,3.97297297 10.6144578,3.48895649 10.6144578,2.89189189 L10.6144578,2.89189189 L10.6144578,1.94594595 C10.6144578,1.87131287 10.5551221,1.81081081 10.4819277,1.81081081 L10.4819277,1.81081081 Z" id="形状结合" fill="#007CEA" fill-rule="nonzero"></path>
                        </g>
                    </g>
                </g>
            </g>
        </g>
    </g>
</svg>