<?xml version="1.0" encoding="UTF-8"?>
<svg width="24px" height="24px" viewBox="0 0 24 24" version="1.1" xmlns="http://www.w3.org/2000/svg" xmlns:xlink="http://www.w3.org/1999/xlink">
    <title>缺陷</title>
    <defs>
        <filter color-interpolation-filters="auto" id="filter-1">
            <feColorMatrix in="SourceGraphic" type="matrix" values="0 0 0 0 1.000000 0 0 0 0 0.596078 0 0 0 0 0.317647 0 0 0 1.000000 0"></feColorMatrix>
        </filter>
    </defs>
    <g id="-" stroke="currentColor" stroke-width="1" fill="currentColor" fill-rule="evenodd">
        <g id="切图" transform="translate(-745.000000, -98.000000)">
            <g id="编组-4备份-3" transform="translate(741.000000, 94.000000)">
                <g id="缺陷" transform="translate(4.000000, 4.000000)">
                    <rect id="矩形备份-11" fill-opacity="0.1" fill="#FFB165" x="0" y="0" width="24" height="24" rx="4"></rect>
                    <g filter="url(#filter-1)">
                        <g transform="translate(4.000000, 4.000000)">
                            <rect id="矩形备份-36" x="0" y="0" width="16" height="16"></rect>
                            <path d="M6.79907242,1.5 L1.89795918,1.5 C1.6781724,1.5 1.5,1.6781724 1.5,1.89795918 L1.5,14.1020408 C1.5,14.3218276 1.6781724,14.5 1.89795918,14.5 L14.1020408,14.5 C14.3218276,14.5 14.5,14.3218276 14.5,14.1020408 L14.5,1.89795918 C14.5,1.6781724 14.3218276,1.5 14.1020408,1.5 L9.73208683,1.5 C9.58866788,1.5 9.45634282,1.57716992 9.38572028,1.7019956 L7.86910421,4.38262166 L7.85321117,4.41372058 C7.74771463,4.643968 7.88351138,4.91830887 8.13783099,4.9688974 L9.87889796,5.31510204 L7.78908163,9.30583673 L7.78907144,6.45244238 L7.7872497,6.41411626 C7.76796599,6.21231065 7.59797041,6.0544832 7.39111226,6.0544832 L6.10757143,6.0542449 L7.18371192,2.00005699 C7.25074483,1.74751967 7.06035484,1.5 6.79907242,1.5 Z M13.7040816,2.29591837 L13.7040816,13.7040816 L2.29591837,13.7040816 L2.29591837,2.29591837 L6.28187755,2.29591837 L5.20550162,6.35034458 L5.19793885,6.38472761 C5.15592337,6.62487228 5.34073517,6.85040157 5.59014113,6.85040157 L6.99316327,6.85016327 L6.99315308,10.9231228 C6.99315308,11.3390221 7.55070322,11.476182 7.74365252,11.1077492 L10.8306027,5.21327979 L10.8458071,5.18088737 C10.941101,4.95224673 10.804437,4.6878189 10.5557023,4.63834131 L8.83279592,4.29553061 L9.96432653,2.29591837 L13.7040816,2.29591837 Z" id="路径-8备份" fill="#FFB165" fill-rule="nonzero"></path>
                        </g>
                    </g>
                </g>
            </g>
        </g>
    </g>
</svg>