<?xml version="1.0" encoding="UTF-8"?>
<svg width="16px" height="16px" viewBox="0 0 16 16" version="1.1" xmlns="http://www.w3.org/2000/svg" xmlns:xlink="http://www.w3.org/1999/xlink">
    <title>知识库</title>
    <defs>
        <filter color-interpolation-filters="auto" id="filter-1">
            <feColorMatrix in="SourceGraphic" type="matrix" values="0 0 0 0 0.133333 0 0 0 0 0.133333 0 0 0 0 0.133333 0 0 0 0.550000 0"></feColorMatrix>
        </filter>
    </defs>
    <g id="-" stroke="currentColor" stroke-width="1" fill="currentColor" fill-rule="evenodd">
        <g id="知识库" transform="translate(-75.000000, -168.000000)" filter="url(#filter-1)">
            <g transform="translate(75.000000, 168.000000)">
                <rect id="矩形" x="0" y="0" width="16" height="16"></rect>
                <path d="M3.91062588,3.50546876 L3.98361567,3.57694751 L11.901125,11.8956136 C12.44641,12.4685266 12.44641,13.3974022 11.901125,13.9703152 C11.3795479,14.518319 10.5479944,14.5421452 9.99946288,14.041794 L9.92647309,13.9703152 L2.00896379,5.65164916 C1.46367874,5.07873612 1.46367874,4.14986055 2.00896379,3.57694751 C2.53054081,3.02894374 3.36209438,3.00511749 3.91062588,3.50546876 Z M8.89926446,1.12483859 L8.97462114,1.19355257 L13.1553932,5.28506569 C13.7196742,5.83729942 13.751029,6.76559062 13.225426,7.35846211 C12.7226753,7.92555659 11.8924492,7.98035392 11.3273731,7.50075728 L11.2520164,7.43204331 L7.07124438,3.34053018 C6.50696334,2.78829645 6.47560857,1.86000526 7.00121155,1.26713376 C7.50396222,0.700039284 8.33418839,0.645241951 8.89926446,1.12483859 Z" id="形状结合备份-2" stroke="#145DD7" stroke-width="1.2" fill-rule="nonzero"></path>
            </g>
        </g>
    </g>
</svg>