<?xml version="1.0" encoding="UTF-8"?>
<svg width="16px" height="16px" viewBox="0 0 16 16" version="1.1" xmlns="http://www.w3.org/2000/svg" xmlns:xlink="http://www.w3.org/1999/xlink">
    <title>知识审核</title>
    <defs>
        <filter color-interpolation-filters="auto" id="filter-1">
            <feColorMatrix in="SourceGraphic" type="matrix" values="0 0 0 0 0.133333 0 0 0 0 0.133333 0 0 0 0 0.133333 0 0 0 0.550000 0"></feColorMatrix>
        </filter>
        <filter color-interpolation-filters="auto" id="filter-2">
            <feColorMatrix in="SourceGraphic" type="matrix" values="0 0 0 0 0.000000 0 0 0 0 0.486275 0 0 0 0 0.917647 0 0 0 1.000000 0"></feColorMatrix>
        </filter>
    </defs>
    <g id="-" stroke="none" stroke-width="1" fill="none" fill-rule="evenodd">
        <g id="知识审核" transform="translate(-75.000000, -480.000000)" filter="url(#filter-1)">
            <g transform="translate(75.000000, 480.000000)">
                <g filter="url(#filter-2)" id="编组">
                    <g transform="translate(0.571429, 1.142857)">
                        <path d="M13.6904456,13.0952855 L6.54760968,13.0952855 C6.21886975,13.0952855 5.95237339,13.3617721 5.95237339,13.6904999 C5.95237339,14.0192277 6.21886975,14.2857143 6.54760968,14.2857143 L13.6904456,14.2857143 C14.0191855,14.2857143 14.2856819,14.0192277 14.2856819,13.6904999 C14.2856819,13.3617721 14.0191855,13.0952855 13.6904456,13.0952855 L13.6904456,13.0952855 Z M12.8673188,8.55805124 L12.0611987,8.55805124 C12.8743422,7.52541429 12.7559844,6.04098625 11.7894837,5.150235 C10.822983,4.25948375 9.33379217,4.26235482 8.3707335,5.15682613 C7.43051587,6.06590147 7.34188186,7.54308051 8.16665247,8.55805124 L7.37073647,8.55805124 C6.99456318,8.55805124 6.63379697,8.70747999 6.36780228,8.97346487 C6.1018076,9.23944975 5.95237334,9.60020267 5.95237334,9.9763621 L5.95237334,11.3368521 C5.95237334,11.8182873 6.34166981,12.2090937 6.82311906,12.210967 L13.4115348,12.210967 C13.8916687,12.210967 14.2819455,11.8237563 14.2856982,11.3436546 L14.2856982,9.98316454 C14.2874918,9.60582788 14.1388569,9.24332494 13.8726658,8.97586701 C13.6064747,8.70840907 13.2446737,8.5580469 12.8673188,8.55805124 Z M13.0952092,11.0273407 L7.142846,11.0273407 L7.142846,9.96955964 C7.142846,9.84370385 7.24487604,9.74167757 7.37073647,9.74167757 L8.77549421,9.74167757 C9.06443046,9.74187618 9.33418157,9.59706406 9.49366396,9.35613817 C9.65314635,9.11521228 9.68107097,8.81033342 9.56800886,8.54444633 C9.45623513,8.28248051 9.30480264,8.03927972 9.1190306,7.82338662 C8.65297365,7.29497549 8.68135273,6.49441615 9.18365626,6.00032996 C9.44230526,5.74510724 9.79709748,5.6116015 10.1598438,5.63299765 C10.6734712,5.65471672 11.1283033,5.97123657 11.3271142,6.44530667 C11.5259252,6.91937677 11.432914,7.46562891 11.0884125,7.84719519 C10.8884601,8.05751585 10.7333883,8.3063159 10.6326315,8.57845859 C10.532362,8.84305673 10.5680283,9.13998376 10.7281079,9.37331151 C10.8881875,9.60663927 11.1523865,9.74678804 11.4353502,9.74848001 L12.8537134,9.74848001 C12.9141537,9.74848001 12.9721185,9.77248895 13.0148563,9.81522513 C13.057594,9.85796131 13.0816039,9.91592401 13.0816039,9.9763621 L13.0952092,11.0273407 Z" id="形状" fill="#007CEA" fill-rule="nonzero"></path>
                        <path d="M6.96597578,2.25217992 L7.73127963,1.94606966 C8.94117839,1.46279012 10.2311514,1.21126619 11.5339894,1.20460258 L12.2992932,1.20460258 L12.2992932,3.46641727 C12.2992932,3.79514511 12.5657896,4.06163167 12.8945296,4.06163167 C13.2232695,4.06163167 13.4897743,3.79514511 13.4897743,3.46641727 L13.4897743,0.602585742 C13.4906059,0.444474488 13.4281397,0.292601482 13.316297,0.180833836 C13.2092272,0.0594060616 13.0528503,-0.00689527879 12.8911282,0.00056890099 L11.5305881,0.00056890099 C10.0765729,0.012031756 8.63770303,0.297025951 7.28910406,0.840671493 L6.74148665,1.05834991 L5.97618281,0.765844547 C4.630094,0.250777072 3.19975156,-0.00875130492 1.75850826,0.00056890099 L0.591845068,0.00056890099 C0.262556501,0.00430548589 -0.00188218402,0.273293546 0,0.602585742 L0,11.1974019 C0,11.3552626 0.0627223044,11.5066577 0.174350769,11.618282 C0.285979233,11.7299064 0.437379922,11.7926163 0.595246413,11.7926163 L0.860551746,11.7926163 C2.03051904,11.7953021 3.19174972,11.9941986 4.29591569,12.3810282 C4.3591795,12.4038168 4.4259513,12.4153287 4.49319401,12.4150458 C4.78291366,12.4145294 5.03018494,12.2055016 5.078904,11.9199177 C5.12762306,11.6343338 4.96363748,11.355153 4.69047234,11.2586239 C3.56461492,10.8616823 2.38379978,10.6425108 1.19048275,10.60899 L1.19048275,1.19439891 L1.76531097,1.19439891 C3.05852963,1.18383416 4.34237753,1.41452609 5.551014,1.87464393 L6.53400427,2.25217992 C6.67315494,2.30497533 6.82682511,2.30497533 6.96597578,2.25217992 L6.96597578,2.25217992 Z" id="路径" fill="#007CEA" fill-rule="nonzero"></path>
                    </g>
                </g>
                <rect id="矩形" x="0" y="0" width="16" height="16"></rect>
            </g>
        </g>
    </g>
</svg>