<?xml version="1.0" encoding="UTF-8"?>
<svg width="24px" height="24px" viewBox="0 0 24 24" version="1.1" xmlns="http://www.w3.org/2000/svg" xmlns:xlink="http://www.w3.org/1999/xlink">
    <title>物料原因</title>
    <defs>
        <filter color-interpolation-filters="auto" id="filter-1">
            <feColorMatrix in="SourceGraphic" type="matrix" values="0 0 0 0 0.137255 0 0 0 0 0.678431 0 0 0 0 0.376471 0 0 0 1.000000 0"></feColorMatrix>
        </filter>
    </defs>
    <g id="-" stroke="none" stroke-width="1" fill="none" fill-rule="evenodd">
        <g id="切图" transform="translate(-745.000000, -274.000000)">
            <g id="编组-6" transform="translate(741.000000, 270.000000)">
                <g id="物料原因" transform="translate(4.000000, 4.000000)">
                    <rect id="矩形备份-8" fill="#23AD60" opacity="0.09713" x="0" y="0" width="24" height="24" rx="4"></rect>
                    <g filter="url(#filter-1)" id="物料备份">
                        <g transform="translate(4.000000, 4.000000)">
                            <rect id="矩形备份-26" x="0" y="0" width="16" height="16"></rect>
                            <path d="M5.79180562,8.26190476 C6.30033462,8.26190476 6.73817005,8.61438632 6.83790079,9.10406881 L7.47798796,12.246926 C7.59353644,12.8142743 7.21885423,13.3661863 6.64111182,13.4796559 C6.57222438,13.4931856 6.50214447,13.5 6.43189278,13.5 L1.56681194,13.5 C0.977627975,13.5 0.5,13.030965 0.5,12.452381 C0.5,12.3833932 0.506939278,12.3145741 0.520716767,12.246926 L1.16080393,9.10406881 C1.26053467,8.61438632 1.6983701,8.26190476 2.2068991,8.26190476 L5.79180562,8.26190476 Z M13.7928952,8.26190476 C14.3014242,8.26190476 14.7392596,8.61438632 14.8389903,9.10406881 L15.4790775,12.246926 C15.594626,12.8142743 15.2199438,13.3661863 14.6422014,13.4796559 C14.5733139,13.4931856 14.503234,13.5 14.4329823,13.5 L9.56790149,13.5 C8.97871753,13.5 8.50108955,13.030965 8.50108955,12.452381 C8.50108955,12.3833932 8.50802883,12.3145741 8.52180632,12.246926 L9.16189348,9.10406881 C9.26162422,8.61438632 9.69945965,8.26190476 10.2079887,8.26190476 L13.7928952,8.26190476 Z M5.79180562,9.04761905 L2.2068991,9.04761905 C2.09036121,9.04761905 1.98867387,9.12166465 1.95333076,9.22830064 L1.94537531,9.25816006 L1.30528815,12.4010172 C1.30184377,12.4179292 1.30010896,12.435134 1.30010896,12.452381 C1.30010896,12.5866951 1.40306703,12.6973947 1.53570874,12.7125237 L1.56681194,12.7142857 L6.43189278,12.7142857 C6.44945571,12.7142857 6.46697568,12.7125821 6.48419754,12.7091997 C6.61831632,12.6828585 6.70866319,12.5620062 6.69775696,12.4313133 L6.69341658,12.4010172 L6.05332941,9.25816006 C6.03047445,9.14594116 5.93659403,9.06254398 5.8231818,9.04942374 L5.79180562,9.04761905 Z M13.7928952,9.04761905 L10.2079887,9.04761905 C10.0914508,9.04761905 9.98976342,9.12166465 9.95442031,9.22830064 L9.94646486,9.25816006 L9.3063777,12.4010172 C9.30293333,12.4179292 9.30119851,12.435134 9.30119851,12.452381 C9.30119851,12.5866951 9.40415658,12.6973947 9.53679829,12.7125237 L9.56790149,12.7142857 L14.4329823,12.7142857 C14.4505453,12.7142857 14.4680652,12.7125821 14.4852871,12.7091997 C14.6194059,12.6828585 14.7097527,12.5620062 14.6988465,12.4313133 L14.6945061,12.4010172 L14.054419,9.25816006 C14.031564,9.14594116 13.9376836,9.06254398 13.8242714,9.04942374 L13.7928952,9.04761905 Z M9.7923504,2.5 C10.3008794,2.5 10.7387148,2.85248156 10.8384456,3.34216405 L11.4785327,6.48502119 C11.5940812,7.0523695 11.219399,7.60428152 10.6416566,7.71775118 C10.5727692,7.7312808 10.5026892,7.73809524 10.4324376,7.73809524 L5.56735672,7.73809524 C4.97817275,7.73809524 4.50054478,7.26906021 4.50054478,6.69047619 C4.50054478,6.6214884 4.50748405,6.55266929 4.52126154,6.48502119 L5.16134871,3.34216405 C5.26107945,2.85248156 5.69891488,2.5 6.20744388,2.5 L9.7923504,2.5 Z M9.7923504,3.28571429 L6.20744388,3.28571429 C6.09090598,3.28571429 5.98921865,3.35975989 5.95387553,3.46639588 L5.94592009,3.4962553 L5.30583292,6.63911244 C5.30238855,6.65602447 5.30065373,6.67322924 5.30065373,6.69047619 C5.30065373,6.82479034 5.4036118,6.93548997 5.53625351,6.95061893 L5.56735672,6.95238095 L10.4324376,6.95238095 C10.4500005,6.95238095 10.4675205,6.95067734 10.4847423,6.94729494 C10.6188611,6.92095377 10.709208,6.80010142 10.6983017,6.66940849 L10.6939614,6.63911244 L10.0538742,3.4962553 C10.0310192,3.38403639 9.9371388,3.30063921 9.82372657,3.28751898 L9.7923504,3.28571429 Z" id="形状结合" fill="#46C881" fill-rule="nonzero"></path>
                        </g>
                    </g>
                </g>
            </g>
        </g>
    </g>
</svg>