<?xml version="1.0" encoding="UTF-8"?>
<svg width="14px" height="12px" viewBox="0 0 14 12" version="1.1" xmlns="http://www.w3.org/2000/svg" xmlns:xlink="http://www.w3.org/1999/xlink">
    <title>我的知识</title>
    <defs>
        <filter color-interpolation-filters="auto" id="filter-1">
            <feColorMatrix in="SourceGraphic" type="matrix" values="0 0 0 0 0.133333 0 0 0 0 0.133333 0 0 0 0 0.133333 0 0 0 0.550000 0"></feColorMatrix>
        </filter>
    </defs>
    <g id="-" stroke="none" stroke-width="1" fill="none" fill-rule="evenodd">
        <g id="切图" transform="translate(-76.000000, -404.000000)">
            <g id="我的知识" transform="translate(75.000000, 402.000000)" filter="url(#filter-1)">
                <g id="se-文件打开">
                    <rect id="矩形_608" x="0" y="0" width="16" height="16"></rect>
                    <g id="联合_10" transform="translate(1.333333, 3.500000)">
                        <path d="M0.666666667,0 L12.6666667,0 C13.0348565,0 13.3333333,0.298476833 13.3333333,0.666666667 L13.3333333,9.83333333 C13.3333333,10.2015232 13.0348565,10.5 12.6666667,10.5 L0.666666667,10.5 C0.298476833,10.5 0,10.2015232 0,9.83333333 L0,0.666666667 C0,0.298476833 0.298476833,0 0.666666667,0 Z" id="路径_2568"></path>
                        <path d="M1.2,1.2 L1.2,9.3 L12.1333333,9.3 L12.1333333,1.2 L1.2,1.2 M0.666666667,0 L12.6666667,0 C13.0348565,0 13.3333333,0.298476833 13.3333333,0.666666667 L13.3333333,9.83333333 C13.3333333,10.2015232 13.0348565,10.5 12.6666667,10.5 L0.666666667,10.5 C0.298476833,10.5 0,10.2015232 0,9.83333333 L0,0.666666667 C0,0.298476833 0.298476833,0 0.666666667,0 Z" id="路径_2569" fill="#222222" fill-rule="nonzero"></path>
                    </g>
                    <path d="M2,2 L5.51333333,2 C5.88152317,2 6.18,2.29847683 6.18,2.66666667 L6.18,4.5 L1.33333333,4.5 L1.33333333,2.66666667 C1.33333333,2.29847683 1.63181017,2 2,2 Z" id="矩形_1355" fill="#222222" fill-rule="nonzero"></path>
                </g>
            </g>
        </g>
    </g>
</svg>