<?xml version="1.0" encoding="UTF-8"?>
<svg width="292px" height="161px" viewBox="0 0 292 161" version="1.1" xmlns="http://www.w3.org/2000/svg" xmlns:xlink="http://www.w3.org/1999/xlink">
    <title>无风险预警</title>
    <defs>
        <filter color-interpolation-filters="auto" id="filter-1">
            <feColorMatrix in="SourceGraphic" type="matrix" values="0 0 0 0 0.913725 0 0 0 0 0.921569 0 0 0 0 0.941176 0 0 0 1.000000 0"></feColorMatrix>
        </filter>
        <filter color-interpolation-filters="auto" id="filter-2">
            <feColorMatrix in="SourceGraphic" type="matrix" values="0 0 0 0 0.913725 0 0 0 0 0.921569 0 0 0 0 0.941176 0 0 0 1.000000 0"></feColorMatrix>
        </filter>
        <filter color-interpolation-filters="auto" id="filter-3">
            <feColorMatrix in="SourceGraphic" type="matrix" values="0 0 0 0 0.913725 0 0 0 0 0.921569 0 0 0 0 0.941176 0 0 0 1.000000 0"></feColorMatrix>
        </filter>
    </defs>
    <g id="-" stroke="none" stroke-width="1" fill="none" fill-rule="evenodd">
        <g id="切图" transform="translate(-740.000000, -573.000000)">
            <g id="无风险预警" transform="translate(740.500000, 573.500000)">
                <g id="编组-5">
                    <g id="图标/se-数据资产-Filled" transform="translate(206.500000, 0.000000)" filter="url(#filter-1)">
                        <g id="se-数据资产-Filled">
                            <rect id="矩形_6545" x="0" y="0" width="40" height="40"></rect>
                            <path d="M20,1.66666667 C9.87477959,1.66666667 1.66666667,9.87477959 1.66666667,20 C1.66666667,30.1252204 9.87477959,38.3333333 20,38.3333333 C30.1252204,38.3333333 38.3333333,30.1252204 38.3333333,20 C38.3333333,9.87477959 30.1252204,1.66666667 20,1.66666667 L20,1.66666667 Z M28.155,20.4283333 L20.43,28.155 C20.1920888,28.3914451 19.8079112,28.3914451 19.57,28.155 L11.845,20.4283333 C11.7307019,20.3147645 11.6664282,20.1602938 11.6664282,19.9991667 C11.6664282,19.8380396 11.7307019,19.6835688 11.845,19.57 L19.57,11.8433333 C19.8079112,11.6068882 20.1920888,11.6068882 20.43,11.8433333 L28.155,19.57 C28.2692981,19.6835688 28.3335718,19.8380396 28.3335718,19.9991667 C28.3335718,20.1602938 28.2692981,20.3147645 28.155,20.4283333 L28.155,20.4283333 Z" id="路径_8026" fill="#222222" fill-rule="nonzero"></path>
                        </g>
                    </g>
                    <path id="直线" d="M242.5,136 L251.5,140.5 L242.5,145 L242.5,141 L143.5,141 L143.5,140 L242.5,140 L242.5,136 Z" fill="#D6DAE4" fill-rule="nonzero"></path>
                    <path id="直线备份" d="M75.5,27 L84.5,31.5 L75.5,36 L75.5,32 L19.5,32 L19.5,31 L75.5,31 L75.5,27 Z" fill="#D6DAE4" fill-rule="nonzero"></path>
                    <line x1="20" y1="32.5" x2="20" y2="81.5" id="直线-3" stroke="#D6DAE4" stroke-linecap="square"></line>
                    <g id="图标/se-icon-资产管理" transform="translate(251.000000, 120.500000)" filter="url(#filter-2)">
                        <g>
                            <rect id="矩形_6449-5" x="0" y="0" width="40" height="40"></rect>
                            <path d="M1.4975,20 C1.51127151,9.78844191 9.78594191,1.51377151 19.9975,1.5 C30.2096282,1.51239755 38.4851024,9.78787177 38.4975,20 C38.4851024,30.2121282 30.2096282,38.4876024 19.9975,38.5 C9.78537177,38.4876024 1.50989755,30.2121282 1.4975,20 L1.4975,20 Z M4.3825,20 C4.39214156,28.6217152 11.3782865,35.6089784 20,35.62 C28.6217135,35.6089784 35.6078584,28.6217152 35.6175,20 C35.6064813,11.3792611 28.6207389,4.39351869 20,4.3825 C11.3792611,4.39351869 4.39351869,11.3792611 4.3825,20 L4.3825,20 Z M18.2775,27.45 L12.6375,21.81 C12.1680574,21.3410794 11.9042834,20.7047731 11.9042834,20.04125 C11.9042834,19.3777269 12.1680574,18.7414206 12.6375,18.2725 L18.2775,12.6375 C19.2534627,11.6632101 20.8340373,11.6632101 21.81,12.6375 L27.45,18.275 C27.9194426,18.7439206 28.1832166,19.3802269 28.1832166,20.04375 C28.1832166,20.7072731 27.9194426,21.3435794 27.45,21.8125 L21.81,27.4525 C21.3408592,27.9204568 20.7051284,28.1830217 20.0425,28.1825008 C19.379513,28.1825008 18.7437318,27.9188734 18.275,27.45 L18.2775,27.45 Z M14.9525,20.0525 L20.05,25.1475 L25.1475,20.05 L20.05,14.9525 L14.9525,20.0525 Z" id="联合_81-5" fill="#000000" fill-rule="nonzero"></path>
                        </g>
                    </g>
                    <g id="图标/se-icon-资产管理" transform="translate(0.000000, 80.500000)" filter="url(#filter-3)">
                        <g>
                            <rect id="矩形_6449-5" x="0" y="0" width="40" height="40"></rect>
                            <path d="M1.4975,20 C1.51127151,9.78844191 9.78594191,1.51377151 19.9975,1.5 C30.2096282,1.51239755 38.4851024,9.78787177 38.4975,20 C38.4851024,30.2121282 30.2096282,38.4876024 19.9975,38.5 C9.78537177,38.4876024 1.50989755,30.2121282 1.4975,20 L1.4975,20 Z M4.3825,20 C4.39214156,28.6217152 11.3782865,35.6089784 20,35.62 C28.6217135,35.6089784 35.6078584,28.6217152 35.6175,20 C35.6064813,11.3792611 28.6207389,4.39351869 20,4.3825 C11.3792611,4.39351869 4.39351869,11.3792611 4.3825,20 L4.3825,20 Z M18.2775,27.45 L12.6375,21.81 C12.1680574,21.3410794 11.9042834,20.7047731 11.9042834,20.04125 C11.9042834,19.3777269 12.1680574,18.7414206 12.6375,18.2725 L18.2775,12.6375 C19.2534627,11.6632101 20.8340373,11.6632101 21.81,12.6375 L27.45,18.275 C27.9194426,18.7439206 28.1832166,19.3802269 28.1832166,20.04375 C28.1832166,20.7072731 27.9194426,21.3435794 27.45,21.8125 L21.81,27.4525 C21.3408592,27.9204568 20.7051284,28.1830217 20.0425,28.1825008 C19.379513,28.1825008 18.7437318,27.9188734 18.275,27.45 L18.2775,27.45 Z M14.9525,20.0525 L20.05,25.1475 L25.1475,20.05 L20.05,14.9525 L14.9525,20.0525 Z" id="联合_81-5" fill="#000000" fill-rule="nonzero"></path>
                        </g>
                    </g>
                </g>
                <g id="图标/se-icon-f-message" transform="translate(92.500000, 13.500000)">
                    <rect id="矩形_746-2" x="0" y="0" width="106" height="106"></rect>
                    <path d="M12.96,83 L93.04,83 C95.2270476,83 97,84.790861 97,87 L97,87 C97,89.209139 95.2270476,91 93.04,91 L12.96,91 C10.7729524,91 9,89.209139 9,87 L9,87 C9,84.790861 10.7729524,83 12.96,83 L12.96,83 Z" id="路径_2587-2" fill="#E9EBF0" fill-rule="nonzero"></path>
                    <circle id="椭圆_1-2" fill="#FF3333" fill-rule="nonzero" cx="52.5" cy="91.5" r="6.5"></circle>
                    <circle id="椭圆_85-2" fill="#E9EBF0" fill-rule="nonzero" cx="52.5" cy="13.5" r="4.5"></circle>
                    <path d="M79.804023,83.0623978 L77.7241379,77.0210005 C76.9846688,74.9242713 76.610501,72.7169607 76.6178161,70.4945276 L76.6178161,47.8723612 C76.6087637,41.7898306 74.0785743,35.9812144 69.6258621,31.8207656 C60.0193145,22.6312699 44.8479269,22.6312699 35.2413793,31.8207656 C30.788667,35.9812144 28.2584777,41.7898306 28.2494253,47.8723612 L28.2494253,70.4945276 C28.2994671,72.7093436 27.9702296,74.9164521 27.2758621,77.0210005 L25.195977,83.0623978 L79.804023,83.0623978 M91,91 L14,91 L19.7528736,74.4192309 C20.1911235,73.1567574 20.4154529,71.8304008 20.4166667,70.4945276 L20.4166667,47.8723612 C20.7557717,30.5343362 35.0998128,16.7334523 52.5,17.0039081 C69.9001872,16.7334523 84.2442283,30.5343362 84.5833333,47.8723612 L84.5833333,70.4945276 C84.5845471,71.8304008 84.8088765,73.1567574 85.2471264,74.4192309 L91,91 Z" id="路径_2588-2" fill="#E9EBF0" fill-rule="nonzero"></path>
                </g>
            </g>
        </g>
    </g>
</svg>