<?xml version="1.0" encoding="UTF-8"?>
<svg width="16px" height="16px" viewBox="0 0 16 16" version="1.1" xmlns="http://www.w3.org/2000/svg" xmlns:xlink="http://www.w3.org/1999/xlink">
    <title>风险预警</title>
    <g id="-" stroke="none" stroke-width="1" fill="none" fill-rule="evenodd">
        <g id="切图" transform="translate(-75.000000, -324.000000)">
            <g id="风险预警" transform="translate(75.000000, 324.000000)">
                <path d="M7.62257792,1.82149795 L3.87079846,2.6997703 C3.21318201,2.85389182 2.72031284,3.39055273 2.63142596,4.04926184 L1.79191685,10.279381 C1.70678506,10.911965 2.0111993,11.5339902 2.5671622,11.8634795 L7.15743071,14.5845197 C7.67570519,14.8915799 8.32429481,14.8915799 8.84256929,14.5845197 L13.4328378,11.8634795 C13.9888007,11.5339902 14.2932149,10.911965 14.2080831,10.279381 L13.368574,4.04926184 C13.2796872,3.39055273 12.786818,2.85389182 12.1292015,2.6997703 L8.37742208,1.82149795 C8.12861289,1.76320439 7.86934699,1.76320439 7.6205378,1.82149795 L7.62257792,1.82149795 Z M8.09486555,2.99152516 L11.8446049,3.86979751 C12.0092654,3.90830448 12.1326417,4.04273184 12.154703,4.20767169 L12.9952322,10.4377909 C13.0165151,10.5959368 12.9404116,10.7514431 12.8014209,10.8338155 L8.21115235,13.5548556 C8.08133169,13.6320242 7.91866831,13.6320242 7.78884765,13.5548556 L3.19857914,10.8338155 C3.05958841,10.7514431 2.98348485,10.5959368 3.0047678,10.4377909 L3.84529697,4.20767169 C3.86735832,4.04273184 3.99073464,3.90830448 4.15539511,3.86979751 L7.90513445,2.99152516 C7.96749956,2.97687199 8.03250044,2.97687199 8.09486555,2.99152516 L8.09486555,2.99152516 Z" id="形状" fill-opacity="0.55" fill="#222222" fill-rule="nonzero"></path>
                <path d="M7.32113666,5.1178012 C7.42148627,4.8361013 7.71289139,4.68141089 7.99131728,4.7620404 C8.26974318,4.84266992 8.44218411,5.13168578 8.38790115,5.42672615 L8.36382487,5.51719015 L7.87026109,6.90783358 L8.92591345,6.90783358 C9.09340986,6.90784717 9.25196187,6.98639053 9.35744851,7.12160706 C9.46293514,7.25682359 9.50409775,7.43428152 9.46948182,7.60459887 L9.44725756,7.68543904 L8.52309874,10.2906098 C8.42244519,10.5715639 8.13164954,10.7257316 7.85370747,10.6454929 C7.57576541,10.5652543 7.4031393,10.2773021 7.45633424,9.98264726 L7.48041052,9.89122087 L8.12861811,8.06269318 L7.07389176,8.06269318 C6.90659524,8.06261865 6.74823681,7.98420408 6.6427882,7.84922298 C6.53733958,7.71424189 6.49602759,7.53706532 6.53032339,7.36689027 L6.55254765,7.2860501 L7.32113666,5.1178012 L7.32113666,5.1178012 Z" id="路径" fill-opacity="0.55" fill="#222222" fill-rule="nonzero"></path>
                <rect id="矩形" x="0" y="0" width="16" height="16"></rect>
            </g>
        </g>
    </g>
</svg>