<?xml version="1.0" encoding="UTF-8"?>
<svg width="24px" height="24px" viewBox="0 0 24 24" version="1.1" xmlns="http://www.w3.org/2000/svg" xmlns:xlink="http://www.w3.org/1999/xlink">
    <title>轧制阶段原因</title>
    <defs>
        <filter color-interpolation-filters="auto" id="filter-1">
            <feColorMatrix in="SourceGraphic" type="matrix" values="0 0 0 0 0.313725 0 0 0 0 0.458824 0 0 0 0 0.968627 0 0 0 1.000000 0"></feColorMatrix>
        </filter>
    </defs>
    <g id="-" stroke="none" stroke-width="1" fill="none" fill-rule="evenodd">
        <g id="切图" transform="translate(-745.000000, -157.000000)">
            <g id="编组-4" transform="translate(741.000000, 153.000000)">
                <g id="轧制阶段原因" transform="translate(4.000000, 4.000000)">
                    <rect id="矩形备份-6" fill="#E4E4FD" x="0" y="0" width="24" height="24" rx="4"></rect>
                    <g filter="url(#filter-1)" id="轧钢">
                        <g transform="translate(4.000000, 4.000000)">
                            <path d="M1.5,6.42212515 C1.5,5.78859032 1.99367026,5.26850196 2.62316804,5.21394149 L2.62368768,3.29762818 C2.62368768,2.87130335 2.97738781,2.53879411 3.4105338,2.50316446 L3.4877402,2.5 L3.80377308,2.5 C4.24531667,2.5 4.623547,2.80882453 4.6642098,3.22340958 L4.66782561,3.29762818 L4.66776857,5.23406785 C5.20225132,5.34215652 5.61049901,5.79062369 5.64819047,6.33908182 L5.65103448,6.42212515 L5.65064,9.5364186 L5.92416,9.5364186 L5.92448276,6.42212515 C5.92448276,5.78859032 6.41815302,5.26850196 7.04765078,5.21394149 L7.04817042,3.29762818 C7.04817042,2.87130335 7.40187057,2.53879411 7.83501658,2.50316446 L7.91222296,2.5 L8.22825582,2.5 C8.66979942,2.5 9.04802974,2.80882453 9.08869254,3.22340958 L9.09230836,3.29762818 L9.09225132,5.23406785 C9.6267341,5.34215652 10.0349818,5.79062369 10.0726733,6.33908182 L10.0755172,6.42212515 L10.07532,9.5364186 L10.34884,9.5364186 L10.3489655,6.42212515 C10.3489655,5.78859032 10.8426358,5.26850196 11.4721335,5.21394149 L11.4726532,3.29762818 C11.4726532,2.87130335 11.8263533,2.53879411 12.2594993,2.50316446 L12.3367057,2.5 L12.6527386,2.5 C13.0942822,2.5 13.4725125,2.80882453 13.5131753,3.22340958 L13.5167911,3.29762818 L13.5167341,5.23406785 C14.0512169,5.34215652 14.4594645,5.79062369 14.497156,6.33908182 L14.5,6.42212515 L14.49948,9.5364186 L14.5,9.53642316 L14.5,11.5455868 L14.49948,11.5455814 L14.5,11.9518683 C14.5,12.3482586 14.3033423,12.71755 13.977031,12.943567 L13.8994573,12.9931285 L13.4289551,13.2696759 C13.2045632,13.4015669 12.9520729,13.4789905 12.6923353,13.4962856 L12.5806363,13.5 L12.2673401,13.5 C12.0057143,13.5 11.7483691,13.4389494 11.5162118,13.3225301 L11.4183188,13.2692628 L10.9489847,12.9930918 C10.6033986,12.7897381 10.3822518,12.4343776 10.3524226,12.0430352 L10.3489655,11.9521395 L10.34884,11.5455814 L10.07532,11.5455814 L10.0755172,11.9518683 C10.0755172,12.3482586 9.87885963,12.71755 9.55254819,12.943567 L9.47497454,12.9931285 L9.00447235,13.2696759 C8.7800805,13.4015669 8.52759018,13.4789905 8.26785257,13.4962856 L8.15615356,13.5 L7.84285735,13.5 C7.58123157,13.5 7.32388638,13.4389494 7.091729,13.3225301 L6.99383604,13.2692628 L6.52450191,12.9930918 C6.17891583,12.7897381 5.95776902,12.4343776 5.92793981,12.0430352 L5.92448276,11.9521395 L5.92416,11.5455814 L5.65064,11.5455814 L5.65103448,11.9518683 C5.65103448,12.3482586 5.45437685,12.71755 5.12806544,12.943567 L5.05049176,12.9931285 L4.57998961,13.2696759 C4.35559771,13.4015669 4.10310741,13.4789905 3.84336984,13.4962856 L3.73167082,13.5 L3.4183746,13.5 C3.15674881,13.5 2.89940361,13.4389494 2.66724623,13.3225301 L2.56935327,13.2692628 L2.10001915,12.9930918 C1.75443307,12.7897381 1.53328626,12.4343776 1.50345705,12.0430352 L1.5,11.9521395 L1.5,6.42212515 Z M4.87064,11.5455814 L2.28,11.5455814 L2.28,11.9521395 C2.28,12.089255 2.34406974,12.2175468 2.45165728,12.30136 L2.50037067,12.3344529 L2.96970479,12.6106238 C3.07819053,12.6744602 3.19912226,12.7141963 3.32405592,12.7275373 L3.4183746,12.7325581 L3.73167082,12.7325581 C3.85796024,12.7325581 3.98236407,12.7056393 4.09646089,12.6540883 L4.17996936,12.6108422 L4.65047152,12.3342948 C4.77016868,12.2639403 4.84926433,12.1439472 4.86716797,12.0100164 L4.87103448,11.9518683 L4.87064,11.5455814 Z M9.29532,11.5455814 L6.70416,11.5455814 L6.70448276,11.9521395 C6.70448276,12.089255 6.76855248,12.2175468 6.87614002,12.30136 L6.92485341,12.3344529 L7.39418757,12.6106238 C7.5026733,12.6744602 7.62360502,12.7141963 7.74853866,12.7275373 L7.84285735,12.7325581 L8.15615356,12.7325581 C8.28244299,12.7325581 8.4068468,12.7056393 8.52094364,12.6540883 L8.60445211,12.6108422 L9.0749543,12.3342948 C9.19465143,12.2639403 9.27374707,12.1439472 9.29165072,12.0100164 L9.29551724,11.9518683 L9.29532,11.5455814 Z M13.71948,11.5455814 L11.12884,11.5455814 L11.1289655,11.9521395 C11.1289655,12.089255 11.1930352,12.2175468 11.3006228,12.30136 L11.3493362,12.3344529 L11.8186703,12.6106238 C11.9271561,12.6744602 12.0480878,12.7141963 12.1730214,12.7275373 L12.2673401,12.7325581 L12.5806363,12.7325581 C12.7069258,12.7325581 12.8313296,12.7056393 12.9454264,12.6540883 L13.0289349,12.6108422 L13.4994371,12.3342948 C13.6191342,12.2639403 13.6982298,12.1439472 13.7161335,12.0100164 L13.72,11.9518683 L13.71948,11.5455814 Z M13.71948,10.3038605 L2.27948,10.3038605 L2.27948,10.7781395 L13.71948,10.7781395 L13.71948,10.3038605 Z M4.41827586,5.97665603 L2.73275862,5.97665603 C2.50194168,5.97665603 2.31146583,6.1465959 2.28352763,6.36624645 L2.28,6.42212515 L2.28,9.5364186 L4.87064,9.5364186 L4.87103448,6.42212515 C4.87103448,6.19502441 4.69831377,6.00761525 4.47506894,5.98012687 L4.41827586,5.97665603 Z M8.84275864,5.97665603 L7.15724136,5.97665603 C6.92642443,5.97665603 6.73594859,6.1465959 6.70801039,6.36624645 L6.70448276,6.42212515 L6.70416,9.5364186 L9.29532,9.5364186 L9.29551724,6.42212515 C9.29551724,6.19502441 9.12279653,6.00761525 8.89955169,5.98012687 L8.84275864,5.97665603 Z M13.2672414,5.97665603 L11.5817241,5.97665603 C11.3509072,5.97665603 11.1604314,6.1465959 11.1324932,6.36624645 L11.1289655,6.42212515 L11.12884,9.5364186 L13.71948,9.5364186 L13.72,6.42212515 C13.72,6.19502441 13.5472793,6.00761525 13.3240345,5.98012687 L13.2672414,5.97665603 Z M3.80377308,3.26744186 L3.4877402,3.26744186 C3.44285443,3.26744186 3.41599228,3.2830577 3.40704285,3.29226676 L3.40368768,3.29762818 L3.4032,5.20906977 L3.88732,5.20906977 L3.88782561,3.29762818 C3.88782561,3.29299892 3.86994061,3.27645724 3.83405972,3.27002572 L3.80377308,3.26744186 Z M8.22825582,3.26744186 L7.91222296,3.26744186 C7.86733718,3.26744186 7.84047502,3.2830577 7.83152562,3.29226676 L7.82817042,3.29762818 L7.82768276,5.20906977 L8.31180276,5.20906977 L8.31230836,3.29762818 C8.31230836,3.29299892 8.29442338,3.27645724 8.25854249,3.27002572 L8.22825582,3.26744186 Z M12.6527386,3.26744186 L12.3367057,3.26744186 C12.2918199,3.26744186 12.2649578,3.2830577 12.2560084,3.29226676 L12.2526532,3.29762818 L12.2521655,5.20906977 L12.7362855,5.20906977 L12.7367911,3.29762818 C12.7367911,3.29299892 12.7189061,3.27645724 12.6830253,3.27002572 L12.6527386,3.26744186 Z" id="形状结合" fill="#7485F7" fill-rule="nonzero"></path>
                            <rect id="矩形" x="0" y="0" width="16" height="16"></rect>
                        </g>
                    </g>
                </g>
            </g>
        </g>
    </g>
</svg>