<?xml version="1.0" encoding="UTF-8"?>
<svg width="16px" height="16px" viewBox="0 0 16 16" version="1.1" xmlns="http://www.w3.org/2000/svg" xmlns:xlink="http://www.w3.org/1999/xlink">
    <title>溯源查询</title>
    <g id="-" stroke="none" stroke-width="1" fill="none" fill-rule="evenodd">
        <g id="切图" transform="translate(-75.000000, -246.000000)">
            <g id="溯源查询" transform="translate(75.000000, 246.000000)">
                <path d="M11.2,2.4 C12.0836556,2.4 12.8,3.1163444 12.8,4 C12.8,4.8836556 12.0836556,5.6 11.2,5.6 C10.8004593,5.6 10.435123,5.45355392 10.1547406,5.21141134 L8.73542702,5.91597762 C9.16485896,6.45729365 9.457076,7.11239267 9.55951164,7.82870818 L11.3051266,7.82839202 C11.5352133,7.22703044 12.1177375,6.8 12.8,6.8 C13.6836556,6.8 14.4,7.5163444 14.4,8.4 C14.4,9.2836556 13.6836556,10 12.8,10 C12.1177375,10 11.5352133,9.57296956 11.3051266,8.97160798 L9.55951164,8.97129182 C9.46683567,9.61935955 9.21881883,10.21732 8.85438869,10.7262457 L9.8762343,11.4934496 C10.1371734,11.3086228 10.4559016,11.2 10.8,11.2 C11.6836556,11.2 12.4,11.9163444 12.4,12.8 C12.4,13.6836556 11.6836556,14.4 10.8,14.4 C9.9163444,14.4 9.2,13.6836556 9.2,12.8 C9.2,12.6779815 9.21365862,12.5591532 9.23953034,12.4449606 L8.05622064,11.5572838 C7.37832823,12.085409 6.52590244,12.4 5.6,12.4 C3.390861,12.4 1.6,10.609139 1.6,8.4 C1.6,6.190861 3.390861,4.4 5.6,4.4 C6.4298399,4.4 7.20065866,4.65269952 7.83970303,5.0853453 L9.61289471,4.20409471 C9.60438591,4.13726288 9.6,4.06914363 9.6,4 C9.6,3.1163444 10.3163444,2.4 11.2,2.4 Z M10.8,12.3428571 C10.547527,12.3428571 10.3428571,12.547527 10.3428571,12.8 C10.3428571,13.052473 10.547527,13.2571429 10.8,13.2571429 C11.052473,13.2571429 11.2571429,13.052473 11.2571429,12.8 C11.2571429,12.547527 11.052473,12.3428571 10.8,12.3428571 Z M5.6,5.54285714 C4.02204357,5.54285714 2.74285714,6.82204357 2.74285714,8.4 C2.74285714,9.97795643 4.02204357,11.2571429 5.6,11.2571429 C7.17795643,11.2571429 8.45714286,9.97795643 8.45714286,8.4 C8.45714286,6.82204357 7.17795643,5.54285714 5.6,5.54285714 Z M12.8,7.94285714 C12.547527,7.94285714 12.3428571,8.14752697 12.3428571,8.4 C12.3428571,8.65247303 12.547527,8.85714286 12.8,8.85714286 C13.052473,8.85714286 13.2571429,8.65247303 13.2571429,8.4 C13.2571429,8.14752697 13.052473,7.94285714 12.8,7.94285714 Z M11.2,3.54285714 C10.947527,3.54285714 10.7428571,3.74752697 10.7428571,4 C10.7428571,4.25247303 10.947527,4.45714286 11.2,4.45714286 C11.452473,4.45714286 11.6571429,4.25247303 11.6571429,4 C11.6571429,3.74752697 11.452473,3.54285714 11.2,3.54285714 Z" id="形状结合备份" fill-opacity="0.55" fill="#222222" fill-rule="nonzero"></path>
                <rect id="矩形" x="0" y="0" width="16" height="16"></rect>
            </g>
        </g>
    </g>
</svg>